<?xml version="1.0" encoding="UTF-8"?>
<svg id="Layer_2" data-name="Layer 2" xmlns="http://www.w3.org/2000/svg" xmlns:xlink="http://www.w3.org/1999/xlink" viewBox="0 0 812.9 204.21">
  <defs>
    <style>
      .cls-1 {
        fill: url(#linear-gradient);
        stroke-width: 0px;
      }
    </style>
    <linearGradient id="linear-gradient" x1="0" y1="102.1" x2="812.9" y2="102.1" gradientUnits="userSpaceOnUse">
      <stop offset="0" stop-color="#8d5f00"/>
      <stop offset="0" stop-color="#b8881e"/>
      <stop offset=".23" stop-color="#fad27a"/>
      <stop offset=".41" stop-color="#eac063"/>
      <stop offset=".59" stop-color="#aa8121"/>
      <stop offset=".77" stop-color="#d3a84e"/>
      <stop offset="1" stop-color="#fffbaa"/>
    </linearGradient>
  </defs>
  <g id="Layer_2-2" data-name="Layer 2">
    <path class="cls-1" d="m591.29,103.2c-3.33,1.59-6.68,2.34-9.59,2.33-2.92.01-5.34-.69-7.06-1.54-3.47-1.75-4.51-3.53-4.57-3.45,0-.08,1.96.78,5.2.67,3.23-.07,7.41-1.75,10.84-5.56,1.75-1.93,3.22-4.13,4.48-6.94,1.43-2.93,2.64-6.05,3.53-9.36.88-3.3,1.44-6.77,1.61-10.36l.02-.66c0-.11-.02-.05-.04-.08l-.07-.04s-.09-.02-.13-.02c-.07.01-.1.06-.1.06,0,0,.04-.05.02-.12,0-.03-.03-.07-.06-.11l-.02-.03s-.43.09-.61.14l-1.5.37c-3.96.99-7.72,2.05-11.19,3.21-6.92,2.31-12.66,5.1-15.95,8.49-3.38,3.28-3.96,7.81-3.49,11.12.44,3.3,1.22,5.22,1.16,5.21.04-.04-1.62-1.12-3.82-4.15-1.06-1.54-2.24-3.65-2.84-6.56-.61-2.88-.38-6.6,1.08-10.2,2.95-7.31,9.63-13.32,17.27-17.87,3.85-2.29,8.05-4.28,12.49-5.95l1.68-.61.99-.34,1.58-.49c2.12-.65,4.28-1.23,6.45-1.78,4.34-1.04,8.67-1.93,13.16-2.88l.03.2c.6,4.39,1.27,8.47,1.67,12.73.17,2.15.24,4.34.16,6.54-.06,1.1-.1,2.19-.22,3.29l-.17,1.57-.15.99c-.85,5.17-2.54,10-4.71,14.19-.4.77-6.84,10.22-7.61,10.74-2.8,3.15-6.22,5.7-9.53,7.26Zm221.22-13.2c-1.29-7.33-5.23-14.07-10.34-19.97-5.17-5.88-11.64-11.08-19.32-15.08-1.93-1-3.93-1.91-6.02-2.72-1.92-.72-3.98-1.56-6.16-2.22-4.29-1.36-8.72-2.33-13.24-3.08-9.05-1.47-18.51-2-28.3-1.73-9.79.3-19.91,1.37-30.28,3.63-5.13,1.11-10.51,2.6-15.65,4.45-5.11,1.81-10.13,3.8-15.19,5.89-10.1,4.19-20.31,8.78-30.71,13.77-5.2,2.5-10.45,5.11-15.76,7.89-.83.44-1.67.89-2.5,1.34-2.37,3.88-15.18,16.33-16.07,19,8.89-1.78,17.96.18,19.48-.78,2.34-1.48,4.76-2.92,7.18-4.33,4.85-2.82,9.76-5.53,14.64-8.14,9.77-5.23,19.45-10.12,28.93-14.61,4.74-2.24,9.44-4.38,14.04-6.3,4.6-1.95,8.98-3.45,13.63-4.77,9.2-2.57,18.48-4.17,27.51-4.99,18.06-1.54,35.33-.57,49.29,5.21,6.9,2.85,13.05,6.99,18.04,11.74,4.95,4.76,8.81,10.25,10.49,15.92,1.75,5.66.84,11.34-2.18,15.69-1.49,2.19-3.35,4.06-5.4,5.68-2.04,1.67-4.13,2.97-6.32,3.96-8.77,4.02-18.18,1.52-22.59-3.38-2.24-2.39-3.14-5.41-2.49-7.9.62-2.48,2.25-4.1,3.62-5.19,2.86-2.14,4.75-2.62,4.7-2.68.04.07-1.8.36-4.86,2.22-1.47.95-3.37,2.48-4.36,5.09-1.04,2.57-.51,6.21,1.73,9.18,4.24,5.94,14.25,9.88,24.72,6.45,2.57-.84,5.15-2.07,7.54-3.68,2.38-1.54,4.8-3.46,6.91-5.89,2.1-2.43,3.88-5.43,4.83-8.86.96-3.42,1.11-7.17.46-10.81Zm-629.49,5.92c2.46,1.43,4.92,2.89,7.3,4.39,2.35,1.49,17.92,1.78,22.49,2.64,0,0-8.24-11.82-13.3-17.65-2.01-2.31-5.27-2.95-7.88-4.33-5.22-2.75-10.38-5.32-15.51-7.8-10.26-4.93-20.33-9.47-30.31-13.64-4.99-2.08-9.95-4.06-14.98-5.88-5.03-1.85-10.39-3.4-15.47-4.56-10.28-2.32-20.34-3.5-30.09-3.87-9.74-.35-19.18.08-28.22,1.43-4.53.68-8.95,1.61-13.26,2.85-2.13.64-4.33,1.37-6.27,2.15-1.91.69-4.1,1.6-6.01,2.53-7.83,3.83-14.41,8.91-19.76,14.68-5.28,5.79-9.43,12.41-11.08,19.69-.82,3.61-.91,7.38-.15,10.89.74,3.52,2.37,6.68,4.38,9.25,2.02,2.57,4.41,4.61,6.81,6.25,2.36,1.66,4.93,3.03,7.51,3.96,5.18,1.88,10.48,2.01,14.93.81,4.46-1.18,8.1-3.58,10.42-6.53,2.36-2.93,3.11-6.64,2.13-9.31-.91-2.71-2.85-4.32-4.34-5.31-3.12-1.94-5.02-2.23-4.98-2.3-.04.06,1.78.53,4.59,2.6,1.36,1.05,2.96,2.61,3.66,5.01.72,2.4,0,5.43-2.13,7.83-4.15,4.95-13.33,7.72-22.12,4.06-2.18-.9-4.31-2.11-6.34-3.7-2.09-1.57-4-3.35-5.59-5.46-3.21-4.19-4.51-9.75-3.06-15.4,1.38-5.67,5.03-11.24,9.83-16.09,4.83-4.85,10.88-9.1,17.7-12.13,13.79-6.08,31.02-7.3,49.18-5.88,9.08.76,18.44,2.27,27.74,4.8,4.7,1.27,9.18,2.76,13.78,4.67,4.64,1.91,9.4,4.06,14.19,6.31,9.59,4.52,19.4,9.47,29.31,14.76,4.95,2.65,9.94,5.4,14.88,8.27Zm83.94-12.74c2.65,1.55,4.25,1.87,4.24,1.91.03,0-.99-1.36-2.14-3.85-1.16-2.46-2.16-6.15-1.39-9.98.7-3.83,2.97-7.92,6.45-12.09,1.73-2.07,3.75-4.15,5.97-6.19l1.71-1.52.44-.38c.07-.04.04,0,.06,0l.05.03c.05.04.06.09.06.09v-.08c.05-.12.19-.31.57-.25,1.67,2.4,3.16,4.7,4.24,6.75,2.2,4.05,2.86,7.71,2.15,11.72-.68,3.92-2.27,7.37-3.37,9.71l-1.84,3.68s1.4-.52,3.76-1.87c2.34-1.39,5.8-3.48,9.16-7.81,1.65-2.16,3.21-5.02,4.06-8.49.86-3.47.88-7.43.19-11.19-.69-3.8-1.95-7.33-3.5-10.76-2.89-5.78-6.53-11.55-10.23-17.6l-6.2,3.97c-2.95,1.89-5.91,3.97-8.64,6.41-.69.6-1.35,1.23-2,1.85l-.94.93-.54.57c-.72.77-1.4,1.56-2.05,2.36-2.61,3.2-4.77,6.63-6.38,10.2-3.26,7.04-4.18,14.92-2.26,21,1.88,6.14,5.84,9.39,8.39,10.9Zm72.57,8.42l1.54-2.08.75-1.08.36-.55.57-.95c1.58-2.68,3.08-5.56,4.3-8.49,1.2-2.93,2.32-5.86,3.5-8.99l-5.65-2.63c-3.11-1.42-6.24-2.84-9.6-3.85-.82-.26-1.64-.53-2.52-.74l-1.28-.34-.79-.18c-1.03-.18-2.02-.38-3.05-.49-4.07-.53-8.24-.44-12.17.38-3.93.8-7.61,2.41-10.57,4.51-2.96,2.12-5.17,4.65-6.67,7.11-2.98,4.99-3.51,9.33-3.72,12.17-.15,2.87.1,4.42.07,4.42.03.02.91-1.31,2.61-3.4,1.7-2.05,4.31-4.92,7.75-6.94,3.48-2.05,7.49-2.92,12.07-2.48,2.29.2,4.76.7,7.38,1.46l1.98.59.46.16-.03.02s-.03.04-.03.05c-.01.07-.05.09-.05.09l.05-.02c.11-.03.35-.03.51.29,0,.03.04,0,0,.11l-.21.5-.42.99-.84,1.94-1.7,3.74c-2.29,4.83-4.61,9-7,12.01-2.36,3.03-4.89,4.81-7.15,5.4-2.25.61-3.8.32-3.78.38.04-.06.88,1.2,3.57,2.28,2.64,1.14,7.46,1.18,12.31-.98,4.88-2.07,9.8-5.79,14.23-10.6,1.11-1.21,2.19-2.48,3.23-3.83Zm-27.03,41.22c-3.34.59-5.96.97-8.26.65-2.31-.27-4.38-1.54-5.73-2.73-1.34-1.18-2.05-2.08-2.07-2.06.03,0-.38,1.01-.49,3.07-.07,1.99.28,5.39,3.01,8.84,2.68,3.47,7.41,6.06,12.27,7.3,1.75.64,6.54,1.06,10.84,1.01,4.37-.02,9.16-.12,13.96-.37l-.2-2.17c-.52-4.51-.81-8.62-2.02-12.91-.62-2.12-1.4-4.19-2.29-6.14-.46-.96-.94-1.92-1.43-2.8-.45-.77-.75-1.15-1.16-1.73-3.03-4.2-6.86-7.37-10.65-9.07-3.79-1.75-7.31-1.86-9.42-1.36-2.14.48-3.05,1.19-3.07,1.15-.02.03,1.09.5,2.5,1.65,1.43,1.13,2.91,3.05,4.03,5.52,1.14,2.46,2.02,5.55,2.77,8.99.08.38.23.97.22,1.2-.04.12-.13.19-.19.26-.13.14-.27.22-.4.24-.25.07-.44-.04-.44-.05h.02c.05.06.22.23.21.51-.09.27.33.7-2.01.98Zm-112.87-64.38l.17,1.57.15.99c.85,5.17,2.54,10,4.72,14.19,2.18,4.21,4.85,7.8,7.61,10.74,2.8,3.15,6.23,5.7,9.53,7.26,3.33,1.59,6.68,2.34,9.59,2.33,2.92.01,5.34-.69,7.06-1.54,3.46-1.75,4.51-3.53,4.57-3.45.01-.08-1.96.78-5.2.67-3.22-.07-7.4-1.75-10.84-5.56-1.75-1.93-3.22-4.13-4.48-6.94-1.43-2.93-2.64-6.05-3.53-9.36-.88-3.3-1.44-6.77-1.61-10.36l-.03-.66c0-.11.03-.05.04-.08l.08-.04s.09-.02.13-.02c.07.01.1.06.1.06,0,0-.04-.05-.02-.12,0-.03.03-.07.06-.11l.03-.03s.42.09.61.14l1.5.37c3.96.99,7.72,2.05,11.19,3.21,6.92,2.31,12.66,5.1,15.95,8.49,3.38,3.28,3.96,7.81,3.49,11.12-.44,3.3-1.22,5.22-1.16,5.21-.04-.04,1.62-1.12,3.82-4.15,1.07-1.54,2.24-3.65,2.84-6.56.61-2.88.38-6.6-1.08-10.2-2.95-7.31-9.63-13.32-17.27-17.87-3.86-2.29-8.05-4.28-12.49-5.95l-1.68-.61-.99-.34-1.59-.49c-2.12-.65-4.28-1.23-6.45-1.78-4.34-1.04-8.67-1.93-13.16-2.88l-.03.2c-.6,4.39-1.27,8.47-1.67,12.73-.17,2.15-.24,4.34-.16,6.54.06,1.1.1,2.19.22,3.29Zm13.97,75.63c-6.06.09-13.27-1.36-20.45-4.44-3.58-1.54-7.14-3.49-10.35-5.84-.8-.59-1.58-1.2-2.33-1.83l-.49-.43c-.05-.05-.01-.04-.02-.06l.02-.05c.04-.06.09-.06.09-.06h0s-.07-.02-.1-.09l-.02-.07s-.19.07.46-.36l2.74-1.73c3.69-2.24,7.48-4.22,11.17-5.92,7.38-3.39,14.4-5.63,20.29-6.21,5.9-.67,10.6.7,13.47,2.8,2.9,2.07,4.04,4.08,4.08,4-.1.04.02-2.19-1.96-5.86-1.01-1.81-2.69-3.91-5.21-5.73-2.51-1.83-5.8-3.3-9.53-4.22-7.49-1.84-16.58-1.56-26.02.69-4.72,1.14-9.57,2.76-14.43,5.02-1.21.57-2.43,1.17-3.65,1.84-.41.21-1.69.95-2.69,1.59-1.05.64-2.06,1.33-3.07,2.03-4.09,2.86-7.08,6.12-10.64,9.44l1.08,1.7c2.57,3.98,4.78,7.95,8.45,11.46.87.88,1.8,1.72,2.75,2.51l1.42,1.16.98.72c1.23.88,2.48,1.68,3.74,2.42,5.05,2.92,10.25,4.75,15.27,5.85,10.06,2.17,19.53,1.32,26.81-1.36,7.35-2.64,12.09-7.18,14.29-10.62,2.25-3.47,2.6-5.68,2.66-5.65-.03-.05-1.51,1.68-4.67,3.6-3.14,1.93-8.05,3.66-14.13,3.69Zm355.13-33.8c-4.93-9.78-13.3-17.14-22.21-20.08-8.88-3.04-17.79-2.19-24.37,1.02-2.86,1.4-5.25,3.27-7.07,5.4-2.49,2.18-4.15,4.94-4.88,7.62-.92,3.31-.71,6.47.08,9.04,1.64,5.25,5.26,7.82,7.56,8.94,2.41,1.11,3.79,1.24,3.77,1.28.03-.04-1.32-.47-3.36-1.96-.83-.62-1.78-1.52-2.65-2.67-.31-.57-.73-1.43-1.24-2.64-.48-1.22-1.06-2.86-1.37-4.81-.12-4.13,2-9.17,6.73-11.19,2.41-1.06,5.93-1.46,9.06-.94,3.21.52,6.42,2,9.33,4.29,5.8,4.56,10.55,12.39,11.98,20.84.34,2.09.45,4.21.27,6.19-.09.99-.25,1.95-.5,2.85-.29,1.15-.63,2.27-.99,3.39-1.49,4.47-3.73,8.59-6.76,12.11-6.01,7.07-15.81,11.62-26.87,14.28-4.55,1.04-10.02.99-15.58.13-5.57-.87-11.27-2.52-16.85-4.75-22.36-9.02-40.39-26.46-45.75-45.91-1.38-4.82-2.03-9.79-2.06-14.59-.01-4.6.83-9.28,2.18-13.68,2.73-8.82,7.46-16.51,13-22.34,5.54-5.87,11.89-9.9,18-12.3,6.12-2.43,11.92-3.31,16.69-3.55,9.61-.37,15.02,1.13,15,.99-.03.15-4.92-2.46-14.89-3.85-4.97-.62-11.29-.77-18.49.86-7.16,1.59-15.15,5.11-22.5,11.09-7.34,5.95-14.04,14.27-18.54,24.72-2.22,5.23-3.91,10.99-4.5,17.33-.53,6.13-.24,12.5,1.08,18.92,2.58,12.85,9.41,25.29,18.9,35.43,9.5,10.18,21.48,18.36,35.04,23.86,6.8,2.72,13.85,4.71,21.14,5.69,7.27.94,14.84.98,22.51-1.09,6.72-1.93,13.01-4.39,19.05-7.93,5.99-3.49,11.47-8.18,15.57-13.75,4.12-5.56,6.78-11.83,8.19-17.91.35-1.52.64-3.04.88-4.54.27-1.74.38-3.46.36-5.12-.04-3.32-.57-6.44-1.37-9.35-3.38-11.55-10.44-20.41-19.1-25.65-1-.59-2.02-1.11-3.06-1.58,1.4.39,2.79.86,4.17,1.47,7.13,3.12,13.34,9.52,16.89,17.98,1.81,4.22,3.04,8.89,3.73,13.84.71,5.04.91,9.99.13,14.99-1.5,10.01-6.71,19.83-14.62,27.77-7.9,7.97-18.3,14.15-29.82,17.84-11.53,3.69-23.6,4.73-34.99,3.39-11.37-1.3-22.13-5.05-31.74-9.91-19.28-9.81-33.75-24.09-42.29-38.19-.7-1.14-1.3-2.27-1.93-3.41,5.34-13.47,6.05-25.62,5.43-33.9-.8-9.68-2.68-14.71-2.56-14.72-.11,0,1.02,5.28.65,14.75-.32,7.22-1.95,17.04-6.64,27.63-4.69-10.59-6.32-20.41-6.64-27.63-.36-9.47.77-14.75.66-14.75.11.01-1.77,5.04-2.57,14.72-.63,8.28.08,20.42,5.43,33.9-.63,1.14-1.22,2.27-1.93,3.41-8.53,14.09-23.01,28.38-42.28,38.19-9.61,4.86-20.37,8.61-31.74,9.91-11.38,1.34-23.45.3-34.98-3.39-11.52-3.69-21.92-9.87-29.82-17.84-7.92-7.94-13.13-17.76-14.62-27.77-.78-5-.59-9.95.12-14.99.69-4.95,1.93-9.63,3.73-13.84,3.56-8.46,9.76-14.85,16.89-17.98,1.38-.62,2.77-1.08,4.17-1.47-1.04.47-2.07.99-3.07,1.58-8.65,5.24-15.72,14.09-19.09,25.65-.81,2.91-1.33,6.03-1.37,9.35-.02,1.66.09,3.38.36,5.12.24,1.5.53,3.01.88,4.54,1.41,6.08,4.07,12.35,8.19,17.91,4.11,5.57,9.58,10.26,15.57,13.75,6.04,3.55,12.33,6,19.05,7.93,7.66,2.07,15.23,2.03,22.51,1.09,7.28-.98,14.34-2.97,21.14-5.69,13.56-5.5,25.54-13.68,35.04-23.86,9.49-10.14,16.31-22.58,18.9-35.43,1.32-6.42,1.61-12.79,1.08-18.92-.59-6.34-2.28-12.11-4.5-17.33-4.49-10.44-11.2-18.76-18.54-24.72-7.35-5.98-15.34-9.5-22.5-11.09-7.2-1.63-13.52-1.49-18.49-.86-9.97,1.39-14.86,3.99-14.89,3.85-.01.14,5.4-1.36,15-.99,4.77.24,10.57,1.12,16.69,3.55,6.11,2.4,12.46,6.43,18,12.3,5.53,5.82,10.27,13.52,13,22.34,1.35,4.39,2.19,9.08,2.18,13.68-.03,4.8-.67,9.77-2.06,14.59-5.36,19.45-23.39,36.89-45.75,45.91-5.58,2.23-11.28,3.88-16.85,4.75-5.55.86-11.03.91-15.58-.13-11.06-2.67-20.86-7.21-26.87-14.28-3.04-3.52-5.27-7.64-6.76-12.11-.37-1.12-.69-2.25-.99-3.39-.24-.91-.4-1.86-.5-2.85-.18-1.98-.07-4.1.27-6.19,1.44-8.45,6.19-16.28,11.98-20.84,2.91-2.29,6.11-3.77,9.33-4.29,3.13-.53,6.64-.13,9.06.94,4.73,2.02,6.85,7.06,6.73,11.19-.31,1.95-.89,3.59-1.37,4.81-.5,1.21-.93,2.07-1.24,2.64-.87,1.15-1.82,2.05-2.65,2.67-2.04,1.49-3.38,1.92-3.36,1.96-.02-.05,1.36-.17,3.77-1.28,2.3-1.12,5.93-3.69,7.56-8.94.78-2.57,1-5.72.08-9.04-.73-2.68-2.39-5.44-4.88-7.62-1.82-2.13-4.21-4.01-7.07-5.4-6.58-3.22-15.49-4.06-24.37-1.02-8.91,2.94-17.28,10.29-22.21,20.08-2.51,4.86-4.3,10.23-5.44,15.82-1.14,5.49-1.77,11.65-1.11,17.87,1.2,12.48,7.24,24.9,16.43,34.6,9.17,9.76,21.22,17.11,34.51,21.37,13.32,4.27,27.24,5.24,40.23,3.35,13.06-1.87,24.9-6.58,35.13-12.44,20.3-11.66,34.6-28.05,42.43-43.74,7.83,15.7,22.13,32.08,42.43,43.74,10.23,5.85,22.07,10.57,35.13,12.44,12.98,1.89,26.91.92,40.23-3.35,13.3-4.26,25.35-11.61,34.51-21.37,9.19-9.69,15.22-22.11,16.42-34.6.66-6.23.03-12.38-1.11-17.87-1.14-5.59-2.92-10.96-5.44-15.82Zm-52.7-37.24c3.36,4.33,6.83,6.43,9.17,7.81,2.37,1.35,3.77,1.86,3.76,1.87l-1.84-3.68c-1.09-2.33-2.69-5.79-3.37-9.71-.71-4.01-.04-7.67,2.15-11.72,1.07-2.05,2.56-4.34,4.23-6.75.38-.06.52.13.55.25v.08s.02-.05.07-.09l.04-.03s-.01-.03.06,0l.44.38,1.71,1.52c2.22,2.04,4.24,4.11,5.97,6.19,3.48,4.16,5.75,8.26,6.45,12.09.77,3.83-.23,7.52-1.39,9.98-1.16,2.48-2.17,3.84-2.14,3.85-.01-.04,1.59-.36,4.24-1.91,2.55-1.51,6.51-4.76,8.39-10.9,1.92-6.07,1-13.95-2.26-21-1.61-3.57-3.77-6.99-6.38-10.2-.66-.79-1.33-1.59-2.05-2.36l-.54-.57-.94-.93c-.65-.62-1.31-1.25-2-1.85-2.73-2.45-5.69-4.53-8.64-6.41l-6.21-3.97c-3.71,6.06-7.34,11.82-10.23,17.6-1.55,3.43-2.81,6.96-3.5,10.76-.69,3.76-.67,7.73.19,11.19.85,3.47,2.41,6.32,4.06,8.49Zm-30.59-11.79c-1.03.11-2.03.31-3.05.49l-.79.18-1.28.34c-.87.21-1.69.48-2.52.74-3.36,1-6.48,2.43-9.59,3.85l-5.66,2.63c1.18,3.13,2.3,6.06,3.5,8.99,1.22,2.93,2.71,5.81,4.3,8.49l.57.95.37.55.75,1.08,1.54,2.08c1.04,1.35,2.12,2.62,3.23,3.83,4.43,4.81,9.35,8.53,14.23,10.6,4.85,2.16,9.67,2.12,12.31.98,2.69-1.08,3.53-2.35,3.57-2.28.02-.05-1.53.23-3.78-.38-2.26-.59-4.79-2.37-7.15-5.4-2.38-3.01-4.7-7.17-7-12.01l-1.7-3.74-.84-1.94-.42-.99-.21-.5c-.03-.11,0-.08,0-.11.16-.32.4-.32.5-.29l.05.02s-.04-.03-.05-.09c0-.02,0-.04-.03-.05l-.03-.02.46-.16,1.98-.59c2.62-.76,5.08-1.26,7.38-1.46,4.58-.45,8.59.43,12.07,2.48,3.44,2.03,6.05,4.89,7.75,6.94,1.7,2.09,2.58,3.42,2.61,3.4-.04,0,.22-1.55.06-4.42-.21-2.84-.74-7.18-3.72-12.17-1.5-2.46-3.71-4.99-6.67-7.11-2.96-2.09-6.64-3.7-10.57-4.51-3.93-.82-8.1-.91-12.17-.38Zm15.33,59.44c1.11-2.47,2.6-4.39,4.03-5.52,1.41-1.15,2.52-1.63,2.5-1.65-.01.04-.93-.68-3.07-1.15-2.11-.5-5.62-.39-9.42,1.36-3.79,1.7-7.62,4.88-10.65,9.07-.41.57-.71.96-1.16,1.73-.48.88-.97,1.84-1.43,2.8-.9,1.95-1.67,4.01-2.29,6.14-1.21,4.29-1.51,8.4-2.02,12.91l-.2,2.17c4.8.25,9.58.35,13.95.37,4.3.04,9.09-.38,10.84-1.01,4.86-1.24,9.59-3.83,12.27-7.3,2.73-3.45,3.09-6.85,3.01-8.84-.11-2.06-.52-3.07-.49-3.07-.02-.02-.73.87-2.07,2.06-1.35,1.19-3.42,2.45-5.73,2.73-2.3.32-4.93-.05-8.26-.65-2.35-.28-1.92-.72-2.01-.98,0-.28.16-.45.21-.5h.02s-.19.1-.44.03c-.13-.03-.27-.1-.4-.24-.06-.07-.15-.14-.19-.26-.01-.23.15-.82.22-1.2.75-3.43,1.63-6.53,2.77-8.99Zm143.65-3.56c-.99-.65-2.28-1.38-2.69-1.59-1.22-.67-2.44-1.27-3.65-1.84-4.86-2.27-9.7-3.88-14.43-5.02-9.43-2.25-18.52-2.53-26.01-.69-3.73.91-7.02,2.39-9.53,4.22-2.52,1.82-4.21,3.92-5.21,5.73-1.99,3.66-1.87,5.9-1.97,5.86.05.08,1.18-1.93,4.08-4,2.87-2.1,7.57-3.47,13.47-2.8,5.89.58,12.91,2.82,20.28,6.21,3.69,1.7,7.48,3.68,11.17,5.92l2.74,1.73c.65.42.42.31.46.36l-.02.07c-.03.07-.09.09-.1.09h0s.05,0,.09.06l.02.05s.03,0-.02.06l-.49.43c-.75.63-1.53,1.24-2.33,1.83-3.22,2.35-6.78,4.3-10.36,5.84-7.18,3.08-14.39,4.54-20.45,4.44-6.07-.04-10.99-1.76-14.13-3.69-3.16-1.92-4.64-3.65-4.67-3.6.06-.03.41,2.17,2.66,5.65,2.2,3.44,6.94,7.98,14.29,10.62,7.28,2.68,16.75,3.53,26.81,1.36,5.02-1.1,10.22-2.93,15.27-5.85,1.26-.74,2.51-1.54,3.74-2.42l.98-.72,1.41-1.16c.95-.79,1.88-1.64,2.75-2.51,3.67-3.51,5.88-7.48,8.45-11.46l1.07-1.7c-3.56-3.32-6.55-6.58-10.64-9.44-1.01-.7-2.02-1.39-3.07-2.03Zm-243.28-31.88c4.07,2,6.5,2.12,6.48,2.2.06-.04-2.07-1.36-4.72-4.46-2.65-3.08-5.31-8.17-5.9-14.83-.66-6.64.46-14.75,3.21-23.3,1.37-4.26,3.14-8.65,5.29-12.89l.83-1.58c.19-.33.17-.23.22-.27.05,0,.09.01.12.04.05.04.06.1.06.1h0s0-.08.07-.12c.05,0,.05-.08.17.03.06.06.02-.03.15.17l.5.77.98,1.54c2.56,4.09,4.68,8.12,6.25,12.05,3.18,7.83,3.82,15.34,2.48,21.89-1.29,6.55-4.1,11.85-6.18,15.39-2.12,3.55-3.54,5.47-3.52,5.48-.01-.02,2.11-1.04,5.6-3.58,3.43-2.57,8.46-6.72,12.55-14.07,2.02-3.66,3.66-8.14,4.39-13.19.75-5.05.55-10.59-.57-16.1-1.11-5.52-3.11-11.02-5.72-16.28l-1.01-1.97-.52-.97-.91-1.56c-1.29-2.21-2.82-4.56-4.33-6.75-3.08-4.41-6.29-8.56-9.61-12.97l-1.31,1.37c-3.55,3.84-6.86,6.8-9.98,11.11-1.53,2.11-2.93,4.47-4.18,6.87-.63,1.15-1.24,2.49-1.66,3.38l-.88,2.12c-2.23,5.66-3.62,11.28-4.38,16.72-1.5,10.86-.32,21.16,3.06,29.04,3.33,7.99,8.96,12.72,12.97,14.64Zm4.98-29.41c-8.02,0-8.02,12.44,0,12.44s8.03-12.44,0-12.44Zm-121.76,49.77c-3.39,0-6.22,2.83-6.22,6.22v.89c0,3.39,2.83,6.22,6.22,6.22s6.22-2.83,6.22-6.22v-.89c0-3.39-2.83-6.22-6.22-6.22Zm-256.86-7.11c-8.02,0-8.02,12.44,0,12.44s8.02-12.44,0-12.44Zm183.09,26.66c-8.02,0-8.02,12.44,0,12.44s8.02-12.44,0-12.44Zm24-44.44c-2.42,0-4.44,2.02-4.44,4.44v.89c0,2.42,2.02,4.44,4.44,4.44s4.44-2.02,4.44-4.44v-.89c0-2.42-2.02-4.44-4.44-4.44Zm45.33-15.11h-.89c-2.42,0-4.44,2.02-4.44,4.44s2.02,4.44,4.44,4.44h.89c2.42,0,4.44-2.02,4.44-4.44s-2.02-4.44-4.44-4.44Zm32,17.77c-5.73,0-5.73,8.89,0,8.89s5.73-8.89,0-8.89Zm-7.11,37.33c-5.73,0-5.73,8.89,0,8.89s5.73-8.89,0-8.89Zm218.7-8.89v.89c0,3.39,2.83,6.22,6.22,6.22s6.22-2.83,6.22-6.22v-.89c0-3.39-2.83-6.22-6.22-6.22s-6.22,2.83-6.22,6.22Zm263.08-.89c8.03,0,8.03-12.44,0-12.44s-8.02,12.44,0,12.44Zm-183.09,26.67c8.02,0,8.02-12.44,0-12.44s-8.02,12.44,0,12.44Zm-28.44-52.44v.89c0,2.42,2.02,4.44,4.44,4.44s4.44-2.02,4.44-4.44v-.89c0-2.42-2.02-4.44-4.44-4.44s-4.44,2.02-4.44,4.44Zm-45.33-15.11c0,2.42,2.02,4.44,4.44,4.44h.89c2.42,0,4.44-2.02,4.44-4.44s-2.02-4.44-4.44-4.44h-.89c-2.43,0-4.44,2.02-4.44,4.44Zm-27.55,22.22c5.73,0,5.73-8.89,0-8.89s-5.73,8.89,0,8.89Zm7.11,37.33c5.73,0,5.73-8.89,0-8.89s-5.73,8.89,0,8.89Zm-103.16-28.44c-5.73,0-5.73,8.89,0,8.89s5.73-8.89,0-8.89Z"/>
  </g>
</svg>