<svg xmlns="http://www.w3.org/2000/svg" data-name="Layer 2" viewBox="0 0 1004 241.8"><defs><linearGradient id="a" x1="0" x2="1004" y1="120.9" y2="120.9" gradientUnits="userSpaceOnUse"><stop offset="0" stop-color="#8d5f00"/><stop offset="0" stop-color="#b8881e"/><stop offset=".2" stop-color="#fad27a"/><stop offset=".4" stop-color="#eac063"/><stop offset=".6" stop-color="#aa8121"/><stop offset=".8" stop-color="#d3a84e"/><stop offset="1" stop-color="#fffbaa"/></linearGradient></defs><path fill="url(#a)" d="M266.8 128.3a15.6 15.6 0 0 1-1-11.4 25.1 25.1 0 0 1 11-13.7 39 39 0 0 1 11.5-5l.6-.2 1.1-.2 2.2-.4c3-.5 6-.6 9-.6h6c0 5.9 0 11.5-.6 16.9-.5 3-1.2 6-2.4 9s-3 5.8-5.1 7.8a19 19 0 0 1-6.7 4.1 25.2 25.2 0 0 1-9.9 1.4c-2.2-.1-3.4-.4-3.4-.4l2.9-1.8c1.8-1 4.4-2.8 6.7-5.2 2.3-2.5 3.4-5.4 3.7-9.2.2-1.9.2-4.2 0-6.6-.2-.2-.4-.1-.4 0v-.1h-.6l-1.9.3c-2.4.4-4.8 1-7 1.6a22.8 22.8 0 0 0-9.8 5.6 13.6 13.6 0 0 0-3.5 7.6c-.3 2.3-.2 3.7-.2 3.6 0 0-1-1-2.2-3.2Zm43 39.5 4-1.2 2-.8 1-.4.5-.2.8-.4c2.3-1.2 4.6-2.5 6.8-4l6.4-4.7-2.7-4.4c-1.5-2.4-3.1-4.8-5-7l-1.4-1.6a21.7 21.7 0 0 0-3.2-3c-2.6-2.2-5.5-4-8.6-5.2a23.5 23.5 0 0 0-9.5-1.6 20.2 20.2 0 0 0-15.8 8.8c-1.4 2-2 3.2-2 3.2s1.2-.6 3.4-1.3a25 25 0 0 1 8.5-1.3c3.3 0 6.5 1.3 9.5 3.6 1.5 1.2 3 2.6 4.5 4.3l1.2 1.3.2.3-.1.1c.1 0 .3.2.2.5l-.4.3-.7.5-1.5 1-2.8 1.8a52.7 52.7 0 0 1-10.3 5.3 12 12 0 0 1-7.4.6c-1.8-.6-2.8-1.5-2.8-1.5s0 1.3 1.4 3.2c1.4 2 4.7 4.2 9 4.9 4.4.7 9.5.3 14.8-1.1ZM280.5 180l-.4 1.9-.2.4c0 .4 0 .7-.3 1-.3.4-.8.5-1.3.5h-.2c-.2 0-.6 0-1.6-.5a23 23 0 0 1-6.1-3.2 9.3 9.3 0 0 1-2.8-4.5l-.5-2.3s-.7.5-1.7 1.9a11 11 0 0 0-1.9 7.5 19 19 0 0 0 5.3 10.6c1 1.2 4.1 3.7 7.2 5.6 3 2 6.4 4 9.9 6l.8-1.7c1.7-3.4 3.3-6.4 4.4-9.9a38.9 38.9 0 0 0 1.4-8v-1.6a23 23 0 0 0-3.4-11.1c-2-3-4.3-4.6-6-5.2-1.7-.6-2.7-.5-2.7-.6a12.2 12.2 0 0 1 1.4 8 31 31 0 0 1-1.3 5.3Zm71.3-102.3c1.8 3 4.1 4.7 5.8 5.4 1.7.7 2.6.6 2.6.7 0 0-.5-.9-.9-2.4-.4-1.4-.5-3.4-.1-5.6.4-2.2 1.3-4.8 2.4-7.4l.4-1H362.6c.2 0 .3.2.3.2s0-.9.2-1c.2-.2 0 0 1.7.8a23 23 0 0 1 6 3.5 9.2 9.2 0 0 1 2.6 4.6l.4 2.4s.7-.5 1.8-1.9a11 11 0 0 0 2.1-7.4 19 19 0 0 0-4.8-10.8c-1-1.3-4-3.8-7-5.8-2.9-2.1-6.2-4.3-9.6-6.4l-.9 1.5c-1.8 3.4-3.5 6.3-4.7 9.8a38.9 38.9 0 0 0-1.8 7.8v1.8a23 23 0 0 0 3 11.2ZM226.3 122c1.6 2.6 3.6 4.6 5.7 5.9 2 1.3 4 1.9 5.6 2 3.2.4 4.7-.4 4.7-.3 0 0-1.7-.3-4-1.9a13 13 0 0 1-5-8.7c-.4-2.1-.4-4.3 0-6.9a43.1 43.1 0 0 1 5.2-16l.3-.5c0-.1 0 0 0 0h.4l.4.3.8 1c2.4 2.4 4.5 4.8 6.4 7.2 3.8 4.7 6.6 9.2 7.4 13 .9 3.8-.8 7.3-2.6 9.4-1.7 2-3.1 3-3.1 3.1 0 0 1.6 0 4.5-1.2a14.3 14.3 0 0 0 8.8-11 33 33 0 0 0-4.1-20.1 65.5 65.5 0 0 0-6.1-9.8l-1-1.2-.5-.6-.8-1c-1.2-1.5-2.5-2.9-3.8-4.2-2.5-2.7-5.2-5.2-7.9-8v.2c-2.5 2.8-4.8 5.4-7 8.2a46 46 0 0 0-3 4.5l-1.3 2.4-.6 1.1-.3.8a39.5 39.5 0 0 0-2.5 23c.5 3.4 1.8 6.7 3.4 9.3Zm-56.5 4.3.4 1.4.4 1a41.3 41.3 0 0 0 9.6 14.2c6 6 13 9.7 19.4 11 6.3 1.5 11.6.5 14.7-1 3.1-1.4 4.4-2.8 4.4-2.7 0 0-1.8.5-4.9.4-3 0-7.2-1-11.5-3.7a44.8 44.8 0 0 1-17.8-23.3l-.1-.5v-.1h.1v-.1l.5-.1h2.7c3.6 0 7.1.4 10.4.9 6.7.9 12.6 2.5 17 4.7a16 16 0 0 1 8.2 8c1 2.7 1 4.6 1 4.6s1-1.5 1.3-5c0-1.7-.1-4-1.1-6.3-1-2.4-2.6-5-4.8-7.2a47 47 0 0 0-18.5-11.2 63.5 63.5 0 0 0-18.3-3.3h-3c-4.2.2-7.7 1.1-11.7 1.8v1.7c0 4-.2 7.7.8 11.8l.8 3Zm217.7-.4c3.9 1.6 7.1 3.5 9.7 5.6 5 4 6.6 9.2 6.7 9 0 0 .5-1 .9-3.3.3-2.3.3-5.9-1.3-10-1.6-4-4.6-8.5-9-12.1A36.2 36.2 0 0 0 372 107c-3 0-6 .2-8.8.3.8 4.9 1.6 9.3 2.7 13.6.5 2.2 1.1 4.3 1.8 6.2.4 1.2.6 1.4.9 2l.8 1.6c2.1 4.2 4.8 7.8 7.6 10.3a15 15 0 0 0 7.8 4c2 .2 3-.3 3-.2 0 0-1-.5-2.2-1.7a14.8 14.8 0 0 1-3.2-6c-.8-2.7-1.4-6.1-2-10v-1.5l-.2-1.2.4-.4c.2-.2.5-.1.6 0l.2.1.1-.3c2 .6 4.1 1.4 6 2.2Zm-31.1 25 1-.7 1.9-1.5c2.7-1.8 5.6-3.1 8.3-3.8 5.5-1.5 10.1-.6 10-.7 0 0-.5-.9-1.9-2.3a19.6 19.6 0 0 0-7.4-4.6 24.1 24.1 0 0 0-17.6.8l-2 .9-1 .5-1.2.9c-3.8 2.4-7 6-9 9.7-1.1 2-1.7 4-2.3 6l-.9 3-.7 2.7c3.7 1 7 1.7 10.2 2.2a42.2 42.2 0 0 0 12.4.3l.7-.1a25 25 0 0 0 7-3c2.4-1.8 3.8-3.7 4.5-5 .8-1.3 1-2 1-2 0-.1-3.1 1.4-7.5 1.2a20.1 20.1 0 0 1-5.3-.9l-.5-.1-.2-.2-.3-.3c-.8-.8-.7-1.5-.2-1.8.4-.3.7-.4.7-.3 0 0-.2 0-.2-.3v-.1l.5-.4Zm47-76a34 34 0 0 0-3.5 11c-.5 3.4-.6 6.7-.4 9.8.2 6 1.3 11.2 2.3 15.5 2.1 8.5 4 13.7 3.9 13.8 0 0 2-5.4 3.7-14l2.8-14.4a64 64 0 0 1 22-38c3-2.2 6.2-3.3 8.6-3.8l3.7-.5s-1-.9-3.5-1.8c-2.4-1-6.4-2-11.4-1.1A33 33 0 0 0 416 59a52 52 0 0 0-12.6 16ZM388 107.5c4 5.3 8.1 8.6 11 10.6 3 2 4.9 2.8 4.9 2.8s-5.3-6.1-9.3-17a43.4 43.4 0 0 1-.5-29.6c1-3.7 2.6-7.4 4.5-11.2 3.7-7.4 8.6-14.4 13-21.4 4.4-6.9 8.3-14.2 9.4-21.2 1.2-7-.7-12.6-2.3-15.8-1.6-3.2-3-4.7-3-4.7s.5 2 .7 5.3c.2 3.4-.1 8.2-2.7 13-2.4 4.8-6.9 9.8-12.3 15.7-5.4 6-11.7 13-16.4 22.3a57 57 0 0 0-6 28.9c.9 9.6 5 17.1 9 22.3Zm-72.1 24.3a20.8 20.8 0 0 0 27.8 1.8c3.3-2.8 4.6-6.9 4.6-10 0-3-.9-5.4-1.7-7.1-1.7-3.5-3.2-5-3.1-5 0 0 .6 2 .8 5.6 0 1.7 0 3.9-.8 5.8-.7 2-2.2 3.7-4.2 4.6-2 .8-4.8 1-7.4.3-2.7-.7-5-2.3-6.2-4.3-1.2-2-1.5-4.3-.9-7.5a27 27 0 0 1 3-7.7c.4-1 .8-1.6 1.3-2.3 3.7-5.7 10.8-8.9 18-9.7 7.1-1 14.2.2 20 2a64.7 64.7 0 0 1 13.5 6.1l4.8 3s-1-1.7-3.2-4.8c-2.3-3-6-7.1-11.7-11a46.3 46.3 0 0 0-23.8-8.2 38 38 0 0 0-15.9 2.6 31.3 31.3 0 0 0-18.3 19.4c-1 2.7-1.8 5.6-2.1 8.6-.3 3-.2 6.3.7 9.5 1 3 2.6 6 4.8 8.3Zm384-9c1.1 2.9 2.9 5.7 5 7.7a19 19 0 0 0 6.7 4.1c4.3 1.5 7.6 1.5 9.9 1.4 2.3-.1 3.5-.4 3.5-.4l-3-1.7a32 32 0 0 1-6.7-5.3 14.2 14.2 0 0 1-3.7-9.2 53 53 0 0 1 0-6.6c.2-.2.4-.1.4 0v-.1h.6l1.9.3c2.5.4 4.8 1 7 1.6 4.2 1.4 7.6 3.2 9.8 5.6 2.3 2.3 3.2 5.4 3.5 7.6.3 2.3.2 3.7.3 3.7 0 0 1-1 2-3.3 1.2-2.2 2.5-6.2 1-11.3a25.1 25.1 0 0 0-10.9-13.7 39 39 0 0 0-11.5-5l-.6-.2-1.1-.2-2.2-.4c-3-.5-6-.6-9-.6h-6c0 5.8 0 11.5.7 16.8.4 3.1 1.1 6.2 2.3 9.1Zm-5 27.8c1.5-1.7 3-3.1 4.5-4.3 3-2.3 6.2-3.5 9.6-3.7 3.3 0 6.4.8 8.5 1.4l3.3 1.2s-.5-1.1-2-3a20.2 20.2 0 0 0-15.9-8.8c-2.9-.2-6.2.3-9.3 1.5a31 31 0 0 0-11.8 8.1l-1.5 1.7a59.6 59.6 0 0 0-5 7l-2.7 4.4 6.5 4.7c2.1 1.5 4.5 2.8 6.8 4l.8.4.5.2 1 .4 2 .8c1.3.5 2.6.9 4 1.2a35.7 35.7 0 0 0 14.6 1c4.4-.6 7.7-2.8 9-4.8 1.5-2 1.5-3.2 1.5-3.1 0 0-1 .8-2.8 1.4a12 12 0 0 1-7.4-.6c-3-1-6.5-2.9-10.2-5.3l-2.9-1.8-1.5-1-.7-.5-.4-.2v-.1c0-.3.1-.4.2-.5l.2-.4 1-1.3Zm28.7 16.2s-1 0-2.7.6c-1.7.6-4.1 2.2-6 5.2a23 23 0 0 0-3.4 11v1.8a41.4 41.4 0 0 0 1.4 7.9c1 3.5 2.7 6.5 4.3 10l.9 1.5c3.4-2 6.8-4 9.9-6 3-1.8 6.2-4.3 7.1-5.5 2.9-3 5-7 5.3-10.6a11 11 0 0 0-1.8-7.5c-1-1.4-1.7-2-1.7-2s-.1 1-.5 2.4a9.1 9.1 0 0 1-2.8 4.5 23 23 0 0 1-7.7 3.7h-.3c-.4 0-.9-.1-1.2-.5-.3-.3-.3-.7-.3-1l-.3-.4-.3-1.9a31 31 0 0 1-1.3-5.3c-.3-2.2-.1-4.2.4-5.6.4-1.5 1-2.3 1-2.3ZM630.2 78l.4-2.4a9.2 9.2 0 0 1 2.6-4.6 23 23 0 0 1 6-3.5c1.7-.9 1.5-1 1.7-.9l.2 1.1.2-.2h.7l.4 1c1.1 2.6 2 5.2 2.4 7.4.4 2.2.3 4.2-.1 5.6-.5 1.5-1 2.3-1 2.4 0 0 1 0 2.7-.7 1.6-.7 4-2.4 5.7-5.4 1.8-3 2.9-7 3-11.3v-1.7a44.2 44.2 0 0 0-1.8-7.8c-1.2-3.5-3-6.5-4.8-9.8l-.9-1.6L638 52c-3 2-6 4.6-7 5.9a19 19 0 0 0-4.8 10.8 11 11 0 0 0 2.2 7.4c1 1.4 1.8 1.9 1.8 1.9ZM746 125.2c1.7 1.8 3.5 2.7 5 3.3 2.8 1.1 4.5 1.2 4.5 1.2s-1.4-1-3.2-3.1a10.7 10.7 0 0 1-2.5-9.4 34 34 0 0 1 7.3-13l6.4-7.3 1-1 .3-.3h.1v.2-.1H765.3l.3.5a40.6 40.6 0 0 1 5.2 22.9 13 13 0 0 1-5.1 8.7c-2.2 1.6-4 1.8-4 1.9 0 0 1.6.7 4.8.4 1.6-.2 3.6-.8 5.6-2.1 2-1.3 4-3.3 5.7-6 1.6-2.5 2.9-5.8 3.4-9.3a40.3 40.3 0 0 0-2.5-23l-.3-.7-.6-1.1c-.4-.9-.9-1.6-1.4-2.4-.9-1.6-2-3.1-3-4.5-2.2-2.8-4.5-5.4-6.9-8.2v-.1a110.9 110.9 0 0 0-11.6 12l-1 1-.5.7-1 1.2a65.5 65.5 0 0 0-6 9.7 33 33 0 0 0-4.1 20.3 15 15 0 0 0 3.8 7.6Zm32.4 11c.3 3.4 1.3 4.9 1.2 4.9.1 0 0-1.9 1.1-4.6a16 16 0 0 1 8.2-8 55.3 55.3 0 0 1 17-4.7 92 92 0 0 1 10.4-.9h3.2v.2h.1l-.1.6-.9 2.3a44.8 44.8 0 0 1-16.9 21 23 23 0 0 1-11.5 3.7c-3.1 0-4.9-.5-4.9-.4 0 0 1.3 1.3 4.4 2.7 3 1.5 8.4 2.5 14.7 1a44 44 0 0 0 29-25.3l.3-.9.5-1.4.8-3c1-4 .8-7.9.8-11.8V110c-4-.8-7.5-1.7-11.7-1.9h-3a35.5 35.5 0 0 0-6 .4 64 64 0 0 0-12.3 3 47 47 0 0 0-18.5 11 22.8 22.8 0 0 0-4.8 7.3 15 15 0 0 0-1 6.3ZM1004 239.3c-.1.1-1.3-3.7-6-9a35.1 35.1 0 0 0-10.5-7.4 55 55 0 0 0-16.8-4.6c-13-1.7-29.5-.4-47.4 4.8-4.5 1.2-8.8 2.9-13.7 4.7-5 1.8-10 3.5-15.6 5a77.8 77.8 0 0 1-18 3.1 31.2 31.2 0 0 1-8.7-1c-1-.3-2.5-1-3.7-1.7a13.6 13.6 0 0 1-4.6-4.6c-1 .6-1.9 1.3-2.9 1.8a21.3 21.3 0 0 1-18-.2c-6.7-3.3-10.1-9.1-10.7-13.9-.7-4.8.6-8.3 1.5-10.4a24 24 0 0 1 1.5-3l.2-.4.3.1a15.9 15.9 0 0 0 8 18.9c2.5 1.1 5.5 1.3 8.3.1a16 16 0 0 0 7.1-6.5 14.2 14.2 0 0 0 1-10.3 26.9 26.9 0 0 0-8.3-13c-2.3-2.2-5-4-8.1-5a32 32 0 0 0-14-1.7 72 72 0 0 0-30.3 12c-5.9 3.7-11.7 8-17.4 12.8l-1.5 1.8a83.8 83.8 0 0 1-50.7 27.4 102.9 102.9 0 0 1-76.7-19.8l-.2.6a40.4 40.4 0 0 1-13.3 16 33 33 0 0 1-17.2 5.8c-5.5.2-10.6-.6-15-2.3a24.9 24.9 0 0 1-10-7.2 22.7 22.7 0 0 1-5.2-15.4c.2-3.7.8-5.4.8-5.4s-.4 1.9-.1 5.5c.3 3.5 1.5 9.3 6.6 14 4.8 4.7 13.6 7.3 23.3 5.6 4.7-.9 9.5-3 13.5-6.6a34 34 0 0 0 9.2-14.5l.6-2.3c1.5-5.2 2-10.8 1.5-16.5v-.3a30.8 30.8 0 0 0-7.6-18 54.8 54.8 0 0 0-42.8-16.2 89.7 89.7 0 0 0-26.5 5.5 83 83 0 0 0-24.2 14.3 71 71 0 0 0-17.9 22.6 63.2 63.2 0 0 0-6.4 28.6 37 37 0 0 1-14.7-20.8 35.4 35.4 0 0 1-16.2 20.8c.2-10.1-2.1-20-6.4-28.6a70.6 70.6 0 0 0-17.8-22.6 83.5 83.5 0 0 0-50.7-19.8 54.8 54.8 0 0 0-42.9 16.2 30.8 30.8 0 0 0-7.5 18v.3c-.6 5.7 0 11.3 1.4 16.5l.7 2.3a34 34 0 0 0 9.2 14.5c4 3.6 8.7 5.7 13.5 6.6 9.6 1.7 18.4-.9 23.3-5.6 5-4.7 6.2-10.5 6.6-14 .2-3.6-.2-5.5-.1-5.5 0 0 .5 1.7.7 5.4 0 3.5-.3 9.5-5.1 15.4a24.8 24.8 0 0 1-10.1 7.2 36.2 36.2 0 0 1-15 2.3 33 33 0 0 1-17.1-5.8 40.3 40.3 0 0 1-13.3-16l-.3-.6a103 103 0 0 1-76.7 19.8 83.6 83.6 0 0 1-52.1-29.2c-5.8-4.8-11.6-9-17.4-12.8a72 72 0 0 0-30.3-12c-5-.4-9.7 0-14 1.7-3.1 1-5.8 2.8-8.2 5l-2.4 2.4a27 27 0 0 0-6 10.6 14.2 14.2 0 0 0 1.1 10.3c1.7 2.9 4.4 5.3 7.1 6.5 2.8 1.2 5.8 1 8.3 0a15.9 15.9 0 0 0 8-19l.4-.1.2.5c.2.4.8 1.3 1.5 2.9.8 2.1 2.2 5.6 1.5 10.5-.6 4.7-4 10.5-10.7 13.7a21.3 21.3 0 0 1-11.5 2.2 18.9 18.9 0 0 1-9.4-3.7 13.7 13.7 0 0 1-4.6 4.6 16.9 16.9 0 0 1-7 2.4c-1.9.3-3.7.4-5.4.3a78.3 78.3 0 0 1-18-3c-5.5-1.6-10.7-3.3-15.6-5.1-5-1.8-9.2-3.5-13.8-4.7a121.2 121.2 0 0 0-47.3-4.8c-6.6.8-12.2 2.5-16.8 4.7-4.6 2.1-8 4.8-10.4 7.4-4.9 5.2-6 9-6.1 9 0 0 .2-1 .9-2.6.7-1.7 1.8-4.2 3.9-7.2 2-2.9 5.3-6.2 9.8-9.1 4.5-3 10.3-5.4 17-7.1a121 121 0 0 1 50.7-.2c4.8.9 10 2.3 14.9 3.7 5 1.4 10 2.6 15.1 3.7 5.2 1 10.6 1.8 15.4 1.6a18.6 18.6 0 0 0 4.4-.7l.3-.2v-.2l4.4-2.3-.1-.4.7 1.4c-.7-1.2-1.2-2.4-1.7-3.7-3.1.2-6 0-8.7-.2-4-.5-7.8-1.3-11.4-2.1-14-3.5-25.2-7.7-34.8-9.5a52 52 0 0 0-12.6-1.2 22 22 0 0 0-9 2.2 17.3 17.3 0 0 0-4.6 3.5l-1.4 1.5 1-1.7c.8-1.1 2-2.8 4.1-4.4 2.1-1.6 5.2-3.2 9.1-4 3.9-1 8.5-1.2 13.6-1 10.1.3 22.3 3 35.9 4.7 3.4.4 6.9.7 10.3.7 2 0 4 0 6-.4a38.4 38.4 0 0 1 7-25.4c1-1.3 2.1-2.6 3.4-3.9 1.3-1.1 2.5-2.2 3.9-3.2a46 46 0 0 1 9-5.1 62 62 0 0 1 32.1-4.5c3.8.5 8 1.7 11.5 3 5.3 1.8 10.5 4 15.7 6.3a49.7 49.7 0 0 1 13.9-25.6 44.7 44.7 0 0 1 16-10.7 30.7 30.7 0 0 1 17-1.4c10.4 2.3 17.5 9.7 19.1 16.7.5 1.9.5 3.7.2 5.4a12.4 12.4 0 0 1-6.4 10.7 12 12 0 0 1-5.3 1.4h-1l.1-.3h.8a11.3 11.3 0 0 0 9.2-7l.1-.5c.8-2.3 1-5.2-.3-7.9a14.7 14.7 0 0 0-7.5-6.8c-6.9-3-16.7-1-24.5 5-3.9 3-7.2 7-8.5 12.1a34.8 34.8 0 0 0-.2 20.6 32 32 0 0 0 7.2 12.1c2.1 2.2 4.8 4.7 7.2 6.1 2.7 1.6 5.7 2.7 9 3.5 13.5 3 29.6.6 44.3-5.9a71 71 0 0 0 20.4-13.3c6-5.7 10.6-12.7 13-20.6l16 2.5a72.2 72.2 0 0 1-19.4 27.9 83 83 0 0 1-24.5 14.8 95.7 95.7 0 0 1-25.8 6.2 73 73 0 0 1-25.2-1.7c-4-1-8-2.5-11.6-4.8a51.5 51.5 0 0 1-13.8-14.7 39 39 0 0 1-3-33.5c.6-1.6 1.1-2.9 1.9-4.5a32 32 0 0 1 9.2-10.3c4.7-3.3 9.8-5.3 14.8-6.2a27 27 0 0 1 8.3 0c-4.4-3.8-13.5-4-18.3-2.2a45.9 45.9 0 0 0-24 26.2 35.8 35.8 0 0 0-1 20.4 48.8 48.8 0 0 0 8 16.5 61.3 61.3 0 0 0 22.5 18.4c7.8 4 16.3 6.8 25.5 7.9a91 91 0 0 0 72-23.8c-.3-2.2-.5-4.5-.5-6.8 0-8.2 1.6-17.4 7.5-25.7l1.2-1.5 1-1.3a62.9 62.9 0 0 1 19.8-15.5c8.4-4.3 17.9-7 28-7.6v-17.4a43.3 43.3 0 0 1 3.3-16.6l1.3-2.8.9-1.7a43.3 43.3 0 0 1 39.6-22.4c2 .1 3.8.4 5.7.9a34.7 34.7 0 0 1-8-18.5v-.8l-.2-1.3-.1-2.7c0-3.7 0-7.3.2-11l6 1.7c1.8.5 3.6 1 5.4 1.9l2.7 1.2 1 .6.7.4a39.8 39.8 0 0 1 13 13.6c2.2 3.6 3.6 7.2 4.6 10.6.5-3.5 1.2-7 2.3-10.7l.6-2.1 1-2.6c.9-2.4 2-5 3.3-7.3 1.1-2 7.4-14.2 10.5-19.4l10.5 19.4c1.3 2.3 2.4 4.9 3.3 7.3l1 2.6.6 2.1c1 3.7 1.8 7.2 2.3 10.7 1-3.4 2.4-7 4.5-10.6a39.6 39.6 0 0 1 13.8-14l1-.6 2.7-1.2c1.8-.9 3.6-1.4 5.4-2l6-1.7c.1 3.8.3 7.4.2 11l-.1 2.8-.1 1.3-.1.7a38.3 38.3 0 0 1-4.8 14c-1 1.7-2 3.2-3.2 4.6a32.2 32.2 0 0 1 12-.7 42.1 42.1 0 0 1 29.2 16.1 45 45 0 0 1 4.1 6l1 1.8 1.2 2.8a48.7 48.7 0 0 1 3.3 16.6v17.4a71.2 71.2 0 0 1 40.2 15.7 64.7 64.7 0 0 1 7.5 7.4l1.1 1.3 1.2 1.5a43.3 43.3 0 0 1 7.5 25.7c0 2.3-.2 4.6-.5 6.8a74 74 0 0 0 15.1 11.7 91.2 91.2 0 0 0 56.9 12 74.1 74.1 0 0 0 34.8-13.4 61 61 0 0 0 13.2-12.8 48.5 48.5 0 0 0 8-16.5 36.7 36.7 0 0 0-1-20.4 45.8 45.8 0 0 0-24-26.2c-4.8-1.9-14-1.6-18.3 2.1 2.6-.4 5.4-.3 8.3.1a35.8 35.8 0 0 1 21.4 12.4c1 1.3 1.9 2.6 2.6 4.1a43 43 0 0 1 3.8 24.6A39.3 39.3 0 0 1 764 202a51.5 51.5 0 0 1-9 8 42.7 42.7 0 0 1-11.7 4.8 73 73 0 0 1-25.2 1.7 95.2 95.2 0 0 1-25.8-6.2c-8.6-3.4-17-8.2-24.5-14.8a72.2 72.2 0 0 1-19.4-27.9l16-2.5c2.4 8 7 15 13 20.6a71 71 0 0 0 20.4 13.3A74.6 74.6 0 0 0 742 205c3.3-.8 6.4-1.9 9-3.5a35.7 35.7 0 0 0 15.5-22c1-5.7.5-11.5-1.2-16.8-1.3-5.1-4.6-9-8.5-12-7.8-6-17.6-8-24.5-5-3.4 1.4-6.3 4-7.6 6.7-1.2 2.7-1 5.6-.2 8l.1.4a11.8 11.8 0 0 0 4.4 5.3c1.7 1 3.4 1.5 4.8 1.7h.8v.3h-1a12 12 0 0 1-10.5-7.1c-.7-1.4-1-3.2-1.1-5-.3-1.7-.3-3.5.2-5.4 1.6-7 8.7-14.4 19.1-16.7 5.2-1 11.2-.7 17 1.4a44.7 44.7 0 0 1 16 10.7 49.7 49.7 0 0 1 13.9 25.6c5.2-2.3 10.4-4.5 15.7-6.4a54.6 54.6 0 0 1 22.8-3.3 62 62 0 0 1 20.8 4.9c3.2 1.4 6.2 3 9 5l3.9 3.3a38.5 38.5 0 0 1 10.4 29.3c2 .3 4 .4 6 .4 3.4 0 7-.3 10.3-.7 13.6-1.8 25.8-4.4 36-4.7 5-.2 9.6 0 13.5 1 3.9.8 7 2.3 9 4 2.2 1.6 3.4 3.3 4.1 4.4.8 1.1 1 1.7 1 1.7l-1.3-1.5c-1-1-2.4-2.3-4.7-3.5a22 22 0 0 0-8.9-2.2 52 52 0 0 0-12.6 1.2c-9.6 1.8-20.8 6-34.9 9.5-3.5.8-7.2 1.6-11.3 2-2.7.3-5.6.5-8.7.3-.5 1.3-1 2.5-1.7 3.7l.7-1.4v.4l4.3 2.3v.2l.3.2 1.2.3 3.2.4c4.8.2 10.2-.6 15.3-1.6a217 217 0 0 0 15.2-3.7c4.8-1.4 10-2.8 15-3.7 19.6-3.7 37-3.2 50.5.2a56.4 56.4 0 0 1 17 7c4.6 3 7.8 6.3 9.9 9.2 2.1 3 3.2 5.5 3.9 7.1l.9 2.6Zm-786.7-47.1-1-4-.3-1.5-.8-.4a231.9 231.9 0 0 0-23.5-11.2 38.4 38.4 0 0 0-13.4-2.2 52.6 52.6 0 0 0-24.8 6 30.6 30.6 0 0 0-6 4.6 30 30 0 0 0-7.3 18.5 32.1 32.1 0 0 0 3.1 17 20.8 20.8 0 0 0 6.2 7c1.5 1 3.1 1.7 4.8 2.1 3.4.8 6.9.5 9.9-.6 3.5-1.2 5.7-3.6 7.3-6.3-1 .9-2 1.8-3.3 2.6-2.7 1.6-8.1 1.7-11.7.6a19.5 19.5 0 0 1-9.3-6.8c-.8-1-1.5-2.3-2-3.6-1-2.8-1.4-6-.9-9.2.8-4.6 2.9-9 5.8-13l.8-1c2.9-3.5 6.3-7 11.2-9a37.1 37.1 0 0 1 16.6-3.3c11.8.3 23.4 5 34.4 11.2l4.2 2.4Zm302-83.9a40.1 40.1 0 0 1 12.2-16.2l.5-.7c3-4 6.6-8.6 8.9-14a31.7 31.7 0 0 0 2.4-11.2V65.5h-.1l-.3.1-.6.3a38.8 38.8 0 0 0-11 9.7 58.5 58.5 0 0 0-12 32.8Zm-58.7-42.8v.7a38.5 38.5 0 0 0 2.5 11.2c2.3 5.4 5.9 10 8.9 14l.5.7a38.2 38.2 0 0 1 12.2 16.2c-.6-3-1-6.3-1.1-9.7L481 91a58.2 58.2 0 0 0-8.4-15.4 38.8 38.8 0 0 0-11.6-10l-.3-.1h-.1v.1Zm2 87.5c3.6 1 8 .6 10.7-2.2a11 11 0 0 0 2-11.8c-1.7-4.2-5.9-7.8-11.4-10-2-.7-5.4-1.2-8.7-1.4a86.3 86.3 0 0 0-21.4 1.5l-2.6.6-1.4.3-3 .9a24 24 0 0 0-14.2 14.6 103 103 0 0 1 44.4 9.3 34.4 34.4 0 0 1-5-4.8c-4-4.7-5.4-7.8-5.5-7.8 0 0 2.3 2.6 7 6.2a28 28 0 0 0 9 4.6Zm76.8 5.7a15.7 15.7 0 0 1-13.2-2.2c-5.8-4-9-12.2-7.1-20.3.9-4 3-7.7 5.8-10.9a34.8 34.8 0 0 1 22.5-11 86.4 86.4 0 0 1 28.6.7l1.6.4v-.1h.1l-.4-1.1a33.2 33.2 0 0 0-17.7-15.8 30.4 30.4 0 0 0-8.8-2 24 24 0 0 0-8.3 1c-5.4 1.6-10 4.8-13.5 8.5a42 42 0 0 0-10.3 22.6c-1 6.2-.7 9.8-.7 9.8s-1.2-3.4-1.7-9.9a47 47 0 0 1 .3-10c-2 5.7-4.8 10-7.2 12.7a25.7 25.7 0 0 1-3.3 3.2l-1 1.2.1-.5-.8.5 1.4-2.3a74.3 74.3 0 0 0 3.5-20.9c.2-7.2-.3-15.7-2.2-24.6a74.5 74.5 0 0 0-5.1-15.4l-1 2.1a74.5 74.5 0 0 0-4 13.3c-2 9-2.5 17.4-2.3 24.6.3 10 2.3 17.4 3.5 20.9l1.4 2.3-.8-.5.2.5-1.2-1.2c-.8-.7-2-1.7-3.2-3.2-2.4-2.6-5.1-7-7.2-12.7.5 3.9.5 7.3.3 10-.5 6.5-1.8 9.9-1.7 9.9 0 0 .2-3.6-.7-9.8-.9-6-3.3-15-10.3-22.6a30.6 30.6 0 0 0-13.5-8.5 23.8 23.8 0 0 0-12.7-.3 32.3 32.3 0 0 0-22 17l-.6 1.1v.1h.2l1.6-.3a83.1 83.1 0 0 1 28.6-.8 34.6 34.6 0 0 1 22.5 11.1c2.8 3.2 4.9 7 5.8 11 2 8-1.3 16.3-7.1 20.2a15.6 15.6 0 0 1-13.2 2.2 99.7 99.7 0 0 1 13.2 8.8c0-1 .2-2 .3-2.9 1.2-6.4 4-12 7.2-15.5 3.1-3.7 6.4-5.8 8.6-7 2.3-1.1 3.6-1.5 3.6-1.5l-2 3.3a37.3 37.3 0 0 0-4.6 21.7 97.7 97.7 0 0 0 4 19.8c1.8 2.5 3.5 5 5 7.7a26 26 0 0 1 2.2 4.7c.4-1.6 1-3.2 1.9-4.7 1.6-2.7 3.3-5.2 5-7.7l1.1-4.1c1.5-5.8 2.6-11 3-15.8a37.5 37.5 0 0 0-4.7-21.6c-1.1-2.2-2-3.3-1.9-3.3a29.2 29.2 0 0 1 12.2 8.5c3.2 3.6 6 9 7.1 15.5l.4 3a87 87 0 0 1 13.2-9Zm52-13.2a24 24 0 0 0-17.2-15.5l-1.4-.3-2.6-.6a87.9 87.9 0 0 0-21.4-1.5c-3.3.2-6.6.7-8.7 1.5-5.5 2.1-9.7 5.7-11.4 10-1.7 4.1-.8 9 2 11.7 2.7 2.8 7 3.2 10.7 2.2 3.7-1 6.8-3 9.1-4.6 4.7-3.6 7-6.2 7-6.2-.1 0-1.5 3-5.4 7.8-1.3 1.5-3 3.2-5 4.8a103 103 0 0 1 44.3-9.3Zm272.4 56.6a30 30 0 0 0-7.4-18.5 31.7 31.7 0 0 0-13.4-8 52.5 52.5 0 0 0-30.7-.4 231.9 231.9 0 0 0-23.6 11.1l-.7.4-.3 1.5-1 4 4.1-2.5a76 76 0 0 1 34.5-11.2c5.8-.2 11.7 1 16.5 3.3 5 2 8.4 5.5 11.2 9l.9 1c2.9 4 5 8.4 5.7 13a17.7 17.7 0 0 1-2.8 12.8 19.3 19.3 0 0 1-9.3 6.8c-3.6 1.1-9 1-11.7-.6-1.3-.8-2.4-1.7-3.3-2.6 1.6 2.7 3.8 5.2 7.3 6.4 3 1 6.5 1.4 9.9.6a14.4 14.4 0 0 0 7.5-4.5 21.5 21.5 0 0 0 5.1-8.5c1.4-4 2-8.5 1.5-13.1Zm-689 4.2v-.2a26 26 0 0 0-1-2.6l1 2.8Zm654.4 0 1-2.8-1 2.6v.2ZM623.5 127c-.5 4-1.1 7.3-2 10-.8 2.8-2 4.8-3.1 6-1.2 1.2-2.2 1.7-2.2 1.7s1 .4 3 .2c2-.3 5-1.5 7.8-4s5.5-6 7.6-10.2l.8-1.6.8-2c.7-2 1.4-4 2-6.2 1-4.4 1.7-8.8 2.6-13.6l-8.8-.4a36 36 0 0 0-22.5 8.2c-4.4 3.7-7.4 8-9 12.2a19.8 19.8 0 0 0-1.3 9.9c.4 2.3 1 3.4 1 3.4s1.5-5 6.6-9.1c2.5-2 5.8-4 9.6-5.6l6-2.1c.2.1.2.3.2.3l.1-.2h.7l.4.5-.1 1.2-.2 1.4Zm24.6 27.3-.2.1-.5.1a31.4 31.4 0 0 1-5.3 1c-4.4.1-7.6-1.4-7.6-1.3l1 2c.8 1.4 2.2 3.2 4.6 5a19.8 19.8 0 0 0 7 3l.7.2h1l2 .3c3 .1 6.1-.1 9.4-.6a174 174 0 0 0 10.2-2.2l-.8-2.8-.9-3c-.6-2-1.1-4-2.3-6-2-3.6-5.2-7.2-8.9-9.7l-1.3-.9-1-.5-2-.9a26 26 0 0 0-17.5-.8c-3.6 1.3-6 3.2-7.4 4.6-1.5 1.4-2 2.4-2 2.4s4.5-.9 10 .6a27.3 27.3 0 0 1 10.4 5.3l.9.8.5.4v.1c0 .3-.2.3-.2.3s.3 0 .7.3c.4.3.6 1-.2 1.9l-.3.3Zm-43.6-58.6c.2-3 .1-6.3-.4-9.8a34 34 0 0 0-3.5-11A52 52 0 0 0 588 59a33 33 0 0 0-15.6-7.5c-5-.8-9 .2-11.4 1-2.4 1-3.5 2-3.6 2a23.5 23.5 0 0 1 12.3 4.2 64 64 0 0 1 22 38l2.9 14.5c1.7 8.6 3.7 14 3.7 13.9 0 0 1.8-5.3 3.9-13.8 1-4.3 2-9.4 2.3-15.5Zm-12.2-54c4.5 7 9.4 14 13.1 21.4a68.5 68.5 0 0 1 6.7 21.9c.7 6.7-.8 13.3-2.7 18.7-4 11-9.4 17.2-9.3 17.2 0 0 1.8-.8 4.8-2.8 3-2 7-5.4 11.1-10.7a42.7 42.7 0 0 0 8-36.7c-1-4.9-2.7-9.8-5-14.4-4.7-9.4-11-16.5-16.4-22.4-5.4-5.9-10-10.9-12.4-15.7-2.5-4.8-2.9-9.6-2.7-13 .2-3.3.8-5.3.7-5.3 0 0-1.3 1.5-3 4.7a25.4 25.4 0 0 0-2.2 15.8c1 7 5 14.3 9.3 21.3Zm29.5 60.9c-2.3 3-3.2 4.8-3.3 4.8 0 0 1.7-1.2 4.8-3 3.2-1.9 7.8-4.3 13.6-6.2 5.7-1.8 12.8-3 20-2 7.2.8 14.3 4 18 9.7l1.3 2.3a38.8 38.8 0 0 1 3 7.8c.6 3.1.3 5.5-1 7.4-1 2-3.5 3.7-6.1 4.3-2.6.7-5.4.6-7.4-.3-2-.9-3.5-2.5-4.3-4.5-.7-2-.8-4.2-.8-6 .3-3.4 1-5.5.9-5.5 0 0-1.5 1.5-3.2 5-.8 1.8-1.6 4-1.6 7.2 0 3 1.3 7.1 4.6 10a20.8 20.8 0 0 0 27.8-1.8 20 20 0 0 0 4.7-8.4c1-3.2 1-6.4.8-9.4a35.5 35.5 0 0 0-3.8-12.6A31.2 31.2 0 0 0 673.2 86a38 38 0 0 0-16-2.6c-10 .5-18 4.2-23.7 8.1-5.8 4-9.5 8.2-11.8 11.2Zm113.6 47.6c-7.9 0-7.9 12.3 0 12.3s8-12.3 0-12.3Zm-235 7.8c-7.8 0-7.8 12.3 0 12.3s8-12.3 0-12.3Zm38.6-23c-8 0-8 12.3 0 12.3s8-12.3 0-12.3Zm302.6 68h-.8c-3.3 0-6.1 2.9-6.1 6.2s2.8 6.2 6.1 6.2h.8a6.2 6.2 0 0 0 0-12.3Zm-172.8-91.3h-.6c-3.4 0-6.2 2.8-6.2 6.1s2.8 6.2 6.2 6.2h.6a6.2 6.2 0 0 0 0-12.3Zm126.7 21.5c-5.6 0-5.6 8.6 0 8.6s5.5-8.6 0-8.6ZM761 111.7c-5.6 0-5.6 8.7 0 8.7s5.5-8.7 0-8.7Zm-40 6.8c-5.6 0-5.6 8.6 0 8.6s5.5-8.6 0-8.6Zm-14.8 27.7c-2.3 0-4.3 2-4.3 4.3v.6c0 2.4 2 4.3 4.3 4.3s4.3-2 4.3-4.3v-.6c0-2.3-2-4.3-4.3-4.3Zm22.2 22.8c-5.6 0-5.6 8.6 0 8.6s5.5-8.6 0-8.6Zm-116.3-36.3c-5.5 0-5.5 8.6 0 8.6s5.6-8.6 0-8.6Zm25.2-59c-5.5 0-5.5 8.5 0 8.5s5.6-8.6 0-8.6Zm-43 135.2c-5.6 0-5.6 8.6 0 8.6s5.5-8.6 0-8.6ZM269 162.6c8 0 8-12.3 0-12.3s-8 12.3 0 12.3Zm196.4-15.2c8 0 8-12.3 0-12.3s-7.9 12.3 0 12.3Zm-308.7 62c0 3.3 2.8 6.1 6.1 6.1h.9c3.3 0 6.1-2.8 6.1-6.1s-2.8-6.2-6.1-6.2h-.9a6.2 6.2 0 0 0-6.1 6.2Zm172.8-91.5c0 3.4 2.8 6.2 6.2 6.2h.6a6.2 6.2 0 0 0 0-12.3h-.6a6.2 6.2 0 0 0-6.2 6.1ZM209 142c5.5 0 5.5-8.6 0-8.6s-5.6 8.6 0 8.6Zm34.4-21.5c5.6 0 5.6-8.6 0-8.6s-5.5 8.6 0 8.6Zm40 6.8c5.5 0 5.5-8.7 0-8.7s-5.6 8.7 0 8.7Zm10.4 23.3v.6c0 2.4 2 4.3 4.4 4.3s4.3-2 4.3-4.3v-.6c0-2.3-2-4.3-4.3-4.3s-4.4 2-4.4 4.3Zm-17.8 27c5.6 0 5.6-8.5 0-8.5s-5.5 8.6 0 8.6Zm116.2-36.2c5.6 0 5.6-8.6 0-8.6s-5.5 8.6 0 8.6Zm-25.2-59c5.6 0 5.6-8.7 0-8.7s-5.5 8.7 0 8.7Zm43 135.3c5.6 0 5.6-8.6 0-8.6s-5.5 8.6 0 8.6Z" data-name="Layer 3"/></svg>