<?xml version="1.0" encoding="UTF-8"?>
<svg id="Layer_2" data-name="Layer 2" xmlns="http://www.w3.org/2000/svg" xmlns:xlink="http://www.w3.org/1999/xlink" viewBox="0 0 1004 241.82">
  <defs>
    <style>
      .cls-1 {
        fill: url(#linear-gradient);
        stroke-width: 0px;
      }
    </style>
    <linearGradient id="linear-gradient" x1="0" y1="120.91" x2="1004" y2="120.91" gradientUnits="userSpaceOnUse">
      <stop offset="0" stop-color="#8d5f00"/>
      <stop offset="0" stop-color="#b8881e"/>
      <stop offset=".23" stop-color="#fad27a"/>
      <stop offset=".41" stop-color="#eac063"/>
      <stop offset=".59" stop-color="#aa8121"/>
      <stop offset=".77" stop-color="#d3a84e"/>
      <stop offset="1" stop-color="#fffbaa"/>
    </linearGradient>
  </defs>
  <g id="Layer_3" data-name="Layer 3">
    <path class="cls-1" d="m266.82,128.26c-1.11-2.2-2.43-6.24-1-11.37,1.37-5.1,5.53-10.2,10.97-13.67,2.72-1.77,5.76-3.2,9.02-4.28.81-.26,1.64-.51,2.49-.73l.63-.16,1.07-.23c.74-.14,1.48-.29,2.23-.4,3-.49,6-.63,8.91-.63h6.12c-.12,5.88-.15,11.55-.71,16.88-.45,3.09-1.15,6.12-2.36,9.08-1.2,2.94-2.98,5.71-5.14,7.74-2.15,2.05-4.51,3.35-6.63,4.12-4.28,1.52-7.64,1.44-9.9,1.37-2.26-.12-3.47-.39-3.47-.38l2.93-1.75c1.81-1.14,4.46-2.85,6.7-5.28,2.29-2.49,3.46-5.34,3.73-9.15.16-1.91.15-4.18.05-6.61-.23-.21-.42-.14-.5-.08l-.04.04s.02-.03,0-.09l-.02-.05s.02-.02-.04-.02l-.47.07-1.87.3c-2.46.44-4.8.98-6.94,1.66-4.29,1.35-7.71,3.2-9.91,5.56-2.25,2.33-3.2,5.36-3.49,7.6-.3,2.26-.2,3.66-.22,3.65.02-.02-.95-.96-2.11-3.23Zm42.98,39.56c1.32-.35,2.64-.76,3.97-1.23l2-.76,1.01-.42.5-.22.8-.4c2.3-1.16,4.64-2.51,6.8-4.01,2.14-1.51,4.24-3.06,6.46-4.72l-2.76-4.4c-1.48-2.38-3.09-4.77-4.95-6.99-.47-.55-.93-1.1-1.43-1.62-.49-.55-1.01-1.08-1.25-1.3-.62-.59-1.25-1.16-1.91-1.71-2.62-2.18-5.56-3.98-8.69-5.17-3.11-1.19-6.4-1.72-9.41-1.57-3.02.14-5.69.95-7.84,1.99-4.32,2.15-6.63,4.95-8.04,6.84-1.39,1.94-1.91,3.13-1.93,3.12,0,.02,1.22-.51,3.34-1.21,2.1-.68,5.2-1.52,8.52-1.39,3.35.11,6.54,1.31,9.54,3.66,1.52,1.17,3.02,2.62,4.51,4.31l1.12,1.31c.26.31.23.31.21.31l-.03.04s-.07.04-.07.04h.05c.09.03.25.14.22.43-.02.03.04.01-.06.09l-.37.25-.74.51-1.46.98-2.86,1.85c-3.76,2.36-7.25,4.23-10.25,5.26-3,1.06-5.57,1.17-7.41.58-1.84-.58-2.8-1.47-2.81-1.43.06-.03.08,1.24,1.47,3.19,1.34,1.97,4.68,4.15,9.04,4.82,4.33.73,9.44.33,14.68-1.05Zm-29.34,12.22c-.1.61-.2,1.23-.33,1.84-.04.19-.15.3-.25.43.02.35-.05.71-.31,1.03-.32.38-.76.45-1.23.47-.09,0-.16-.03-.25-.04-.18.09-.56.07-1.63-.44-2.59-1.08-4.6-1.99-6.06-3.24-1.49-1.22-2.37-3.04-2.79-4.46-.41-1.43-.5-2.37-.53-2.37.02.02-.72.54-1.72,1.93-.94,1.36-2.21,3.9-1.84,7.53.32,3.62,2.48,7.55,5.32,10.59.94,1.23,4.1,3.67,7.13,5.56,3.06,1.94,6.45,4.01,9.92,5.98l.83-1.61c1.65-3.39,3.28-6.39,4.36-9.93.51-1.76.89-3.56,1.14-5.32.11-.88.2-1.77.25-2.6.03-.74,0-1.14-.03-1.72-.25-4.29-1.5-8.22-3.39-11.1-1.87-2.92-4.28-4.57-5.98-5.16-1.7-.62-2.67-.53-2.66-.56-.02,0,.54.84,1.01,2.27.5,1.43.68,3.44.35,5.65-.22,1.61-.69,3.39-1.31,5.29Zm71.36-102.36c1.75,2.99,4.09,4.74,5.76,5.4,1.68.7,2.65.65,2.63.68.02-.01-.5-.86-.91-2.32-.44-1.45-.54-3.46-.12-5.66.4-2.22,1.27-4.74,2.39-7.43.13-.29.3-.77.42-.92.09-.06.17-.07.25-.09.16-.03.28-.01.38.03.2.07.28.24.28.24h0c-.02-.07.06-.9.2-1.09.19-.14,0,0,1.74.92,2.55,1.19,4.51,2.18,5.92,3.49,1.44,1.29,2.25,3.13,2.6,4.58.35,1.44.4,2.39.43,2.39-.02-.02.75-.51,1.8-1.86.99-1.31,2.37-3.79,2.15-7.44-.17-3.63-2.16-7.64-4.87-10.8-.89-1.27-3.95-3.83-6.89-5.85-2.98-2.07-6.28-4.28-9.66-6.39l-.89,1.58c-1.79,3.31-3.55,6.25-4.76,9.74-.58,1.74-1.04,3.52-1.36,5.27-.14.88-.27,1.76-.36,2.58-.06.74-.04,1.15-.04,1.73.07,4.3,1.16,8.28,2.93,11.24Zm-125.54,44.38c1.62,2.61,3.63,4.62,5.67,5.92,2.03,1.31,4.04,1.9,5.62,2.09,3.2.32,4.73-.46,4.74-.38.04-.05-1.72-.33-3.93-1.86-2.23-1.49-4.4-4.53-5.1-8.73-.36-2.13-.4-4.33-.04-6.86.31-2.69.86-5.41,1.72-8.12.86-2.71,2.02-5.38,3.51-7.97l.28-.47c.05-.08.04-.02.06-.04h.07s.07.03.09.05c.04.04.05.08.05.08,0,0,0-.05.04-.09.02-.02.05-.04.09-.05h.03s.25.24.37.36l.88.93c2.33,2.46,4.49,4.88,6.39,7.24,3.81,4.71,6.58,9.23,7.35,13.07.9,3.8-.73,7.23-2.53,9.34-1.78,2.11-3.18,3.1-3.14,3.13,0-.05,1.64-.06,4.53-1.2,1.43-.59,3.2-1.55,4.91-3.31,1.72-1.74,3.22-4.45,3.81-7.62,1.2-6.43-.78-13.61-4.09-20.21-1.68-3.33-3.72-6.59-6.08-9.74l-.9-1.18-.54-.67-.89-1.05c-1.19-1.41-2.44-2.77-3.72-4.13-2.57-2.66-5.2-5.23-7.91-7.9l-.11.13c-2.39,2.8-4.67,5.36-6.86,8.16-1.08,1.42-2.11,2.92-3.04,4.5-.45.79-.91,1.58-1.31,2.4l-.59,1.17-.34.76c-1.72,4-2.69,8.12-3.04,12.03-.36,3.92-.09,7.62.52,10.91.55,3.46,1.81,6.77,3.42,9.33Zm-56.51,4.33l.47,1.44.36.94c.47,1.16.99,2.29,1.54,3.36,2.23,4.3,5.04,7.9,8.06,10.91,6.06,6.01,13.07,9.65,19.35,11.03,6.32,1.44,11.66.38,14.74-1.04,3.13-1.42,4.36-2.81,4.39-2.76,0-.05-1.8.5-4.87.43-3.06-.05-7.26-1.04-11.53-3.73-4.28-2.64-8.67-6.88-12.31-12.25-1.81-2.68-3.43-5.63-4.63-8.71-.3-.77-.57-1.54-.81-2.32l-.15-.52c-.01-.06,0-.03.01-.05l.04-.03c.05-.02.09,0,.09,0h0s-.04-.05-.03-.11l.02-.05s-.16-.04.48-.04h2.69c3.59.09,7.12.4,10.46.86,6.68.93,12.59,2.5,16.97,4.73,4.43,2.17,7.1,5.23,8.17,7.98,1.1,2.75,1,4.66,1.07,4.63-.09-.02,1-1.53,1.24-4.97.1-1.71-.14-3.94-1.09-6.34-.94-2.4-2.58-4.9-4.78-7.21-4.42-4.64-10.9-8.5-18.5-11.15-3.82-1.31-7.93-2.35-12.34-2.93-1.11-.14-2.23-.27-3.37-.35-.38-.04-1.61-.09-2.59-.09-1.02-.02-2.03.01-3.05.04-4.14.17-7.69,1.12-11.66,1.85v1.67c.01,3.93-.22,7.69.78,11.78.22,1,.49,2,.8,2.99Zm217.77-.41c3.82,1.6,7.1,3.5,9.61,5.57,5.11,4.08,6.67,9.21,6.71,9.11-.02,0,.55-1.11.9-3.39.35-2.25.32-5.83-1.28-9.93-1.55-4.08-4.61-8.51-9.02-12.16-2.21-1.83-4.71-3.47-7.57-4.85-4.77-2.14-10.25-3.46-14.92-3.35-2.92.07-5.96.18-8.75.36.82,4.82,1.53,9.26,2.63,13.6.56,2.16,1.19,4.24,1.89,6.19.38,1.12.56,1.38.84,2l.79,1.61c2.16,4.2,4.8,7.74,7.61,10.23,2.78,2.52,5.79,3.76,7.8,3.97,2.04.22,3.03-.2,3.03-.15.02-.02-.99-.49-2.18-1.7-1.19-1.23-2.36-3.23-3.19-5.97-.85-2.73-1.46-6.14-1.95-10.04l-.18-1.48c-.04-.42-.17-1.23-.08-1.19.11-.21.24-.34.36-.43.24-.17.49-.1.64,0,.13.09.18.17.18.16-.01,0-.05-.15.11-.31,2.07.6,4.12,1.34,6.02,2.13Zm-31.18,25.1c.3-.29.64-.53.95-.8.65-.51,1.31-1.01,1.98-1.46,2.7-1.83,5.59-3.14,8.33-3.85,5.51-1.48,10.11-.53,10.07-.63-.02.02-.56-.94-1.98-2.36-1.41-1.41-3.81-3.3-7.45-4.57-3.61-1.28-8.48-1.79-13.66-.51-1.29.31-2.59.74-3.89,1.27-.64.29-1.3.56-1.93.9-.33.18-.61.31-.99.53l-1.34.88c-3.72,2.46-6.94,6.08-8.88,9.71-1.17,2.06-1.73,4.05-2.34,6l-.89,2.95c-.31,1.04-.59,2.01-.74,2.8,3.66.89,7,1.63,10.21,2.19,3.24.53,6.4.79,9.28.61.72-.03,1.42-.1,2.09-.18.34-.04.67-.08.99-.14l.7-.16c.91-.23,1.79-.5,2.62-.81,1.66-.61,3.13-1.41,4.35-2.24,2.46-1.7,3.84-3.57,4.59-4.87.75-1.31.97-2.09.99-2.08.02-.09-3.15,1.46-7.53,1.26-1.09-.05-2.25-.19-3.46-.46-.61-.12-1.24-.28-1.87-.45l-.47-.14-.2-.14c-.13-.1-.24-.2-.33-.29-.81-.81-.63-1.55-.16-1.89.38-.28.7-.32.66-.3.01,0-.18-.01-.19-.27l.04-.13.45-.39Zm47-76.13c-1.93,3.6-2.96,7.54-3.47,10.98-.51,3.51-.57,6.78-.44,9.82.29,6.08,1.34,11.25,2.36,15.54,2.13,8.52,3.93,13.73,3.89,13.77.04.05,2.04-5.32,3.7-13.9l2.84-14.48c1.11-5.2,2.38-10.57,4.61-14.72,5.43-10.48,11.15-19.18,17.36-23.33,3.07-2.14,6.22-3.2,8.56-3.69,2.34-.48,3.78-.53,3.77-.55-.01.02-1.12-.85-3.55-1.82-2.4-.94-6.36-1.9-11.36-1.1-4.98.75-10.66,3.37-15.61,7.52-4.98,4.14-9.35,9.61-12.66,15.96Zm-15.4,32.58c4.06,5.27,8.18,8.58,11.12,10.61,2.96,2.03,4.78,2.77,4.77,2.79.11,0-5.22-6.16-9.26-17.11-1.96-5.42-3.41-12.04-2.74-18.74.16-1.61.47-3.47.83-5.31.37-1.84.84-3.68,1.4-5.52,1.11-3.69,2.61-7.38,4.48-11.11,3.73-7.46,8.64-14.4,13.06-21.4,4.4-6.94,8.29-14.27,9.38-21.28,1.18-7.03-.66-12.6-2.28-15.76-1.64-3.25-3.01-4.67-2.96-4.7-.05,0,.48,1.94.67,5.32.21,3.37-.18,8.13-2.7,12.93-2.43,4.85-6.91,9.83-12.33,15.75-5.36,5.92-11.72,13-16.42,22.33-2.34,4.64-4.06,9.58-5.03,14.48-.49,2.45-.81,4.88-.96,7.26-.14,2.38-.16,4.68.04,7.13.83,9.64,4.94,17.11,8.93,22.33Zm-72.07,24.28c4.42,4.6,10.1,6.3,14.99,6.33,4.95.03,9.54-1.6,12.78-4.49,3.31-2.87,4.66-6.91,4.62-9.96.01-3.11-.87-5.45-1.67-7.21-1.7-3.48-3.18-4.92-3.13-4.96-.06,0,.61,2.03.83,5.55.08,1.73-.02,3.88-.78,5.87-.75,2-2.21,3.66-4.28,4.52-2.04.88-4.76,1.05-7.38.34-2.63-.68-5.04-2.3-6.21-4.28-1.2-1.95-1.48-4.31-.86-7.48.33-1.57.9-3.28,1.66-5.04.38-.88.81-1.77,1.3-2.72.48-.95.86-1.6,1.34-2.32,3.7-5.62,10.76-8.85,17.92-9.71,7.19-.92,14.3.25,20.07,2.07,5.81,1.83,10.41,4.26,13.52,6.1,3.11,1.85,4.79,3.08,4.8,3.06-.02.01-.95-1.82-3.21-4.83-2.27-2.98-5.94-7.18-11.73-11.14-5.76-3.89-13.81-7.61-23.81-8.08-4.97-.21-10.42.43-15.82,2.6-5.37,2.14-10.7,5.99-14.34,11.43-.9,1.33-1.72,2.83-2.31,4.07-.6,1.22-1.19,2.54-1.69,3.89-1.02,2.7-1.79,5.58-2.11,8.62-.31,3.05-.16,6.28.74,9.42.89,3.13,2.56,6.09,4.74,8.36Zm383.92-9.06c1.2,2.94,2.98,5.71,5.14,7.74,2.15,2.05,4.51,3.35,6.64,4.12,4.29,1.52,7.64,1.44,9.9,1.37,2.26-.12,3.47-.39,3.47-.38l-2.94-1.75c-1.81-1.14-4.46-2.85-6.69-5.28-2.29-2.49-3.46-5.34-3.73-9.15-.17-1.91-.15-4.18-.05-6.61.23-.21.42-.14.49-.08l.05.04s-.02-.03,0-.09l.02-.05s-.03-.02.04-.02l.47.07,1.87.3c2.46.44,4.81.98,6.94,1.66,4.29,1.35,7.71,3.2,9.91,5.56,2.25,2.33,3.2,5.36,3.49,7.6.3,2.26.2,3.66.23,3.65-.02-.02.95-.96,2.11-3.23,1.11-2.2,2.43-6.24,1-11.37-1.37-5.1-5.53-10.2-10.97-13.67-2.72-1.77-5.76-3.2-9.02-4.28-.82-.26-1.64-.51-2.48-.73l-.63-.16-1.07-.23c-.74-.14-1.48-.29-2.23-.4-3-.49-6-.63-8.91-.63h-6.12c.11,5.88.15,11.55.72,16.88.45,3.09,1.14,6.12,2.36,9.08Zm-4.91,27.87c1.49-1.69,2.99-3.15,4.51-4.31,3-2.35,6.2-3.54,9.54-3.66,3.32-.12,6.42.71,8.52,1.39,2.13.7,3.34,1.23,3.35,1.21-.02,0-.53-1.18-1.93-3.12-1.42-1.89-3.72-4.69-8.04-6.84-2.15-1.04-4.82-1.85-7.84-1.99-3.01-.15-6.29.38-9.41,1.57-3.12,1.19-6.07,2.99-8.69,5.17-.65.55-1.29,1.12-1.91,1.71-.23.22-.75.75-1.25,1.3-.49.53-.96,1.08-1.43,1.62-1.87,2.22-3.47,4.61-4.95,6.99l-2.76,4.4c2.22,1.66,4.31,3.21,6.46,4.72,2.16,1.5,4.5,2.85,6.8,4.01l.8.4.5.22,1,.42,2,.76c1.34.48,2.66.88,3.97,1.23,5.24,1.38,10.35,1.78,14.68,1.05,4.36-.66,7.7-2.84,9.04-4.82,1.39-1.96,1.42-3.22,1.47-3.19,0-.05-.97.85-2.81,1.43-1.84.59-4.41.48-7.41-.58-3.01-1.04-6.49-2.91-10.25-5.26l-2.86-1.85-1.46-.98-.73-.51-.37-.25c-.1-.08-.04-.06-.06-.09-.03-.3.13-.4.22-.43h.05s-.04-.01-.08-.05l-.03-.04s-.05,0,.21-.31l1.12-1.31Zm28.67,16.21s-.95-.06-2.66.56c-1.7.59-4.11,2.24-5.98,5.16-1.89,2.89-3.14,6.81-3.39,11.1-.03.58-.06.98-.04,1.72.05.83.14,1.72.25,2.6.24,1.76.63,3.55,1.14,5.32,1.07,3.54,2.7,6.55,4.35,9.93l.83,1.61c3.47-1.97,6.85-4.04,9.92-5.98,3.03-1.89,6.19-4.33,7.13-5.56,2.84-3.04,5-6.96,5.32-10.59.37-3.63-.9-6.17-1.84-7.53-1-1.39-1.74-1.91-1.72-1.93-.02,0-.12.94-.53,2.37-.42,1.43-1.29,3.24-2.79,4.46-1.46,1.25-3.47,2.16-6.06,3.24-1.06.51-1.44.53-1.63.44-.08,0-.15.05-.25.04-.47-.02-.9-.09-1.23-.47-.26-.32-.33-.68-.31-1.03-.09-.13-.2-.24-.25-.43-.13-.61-.23-1.22-.33-1.84-.62-1.9-1.09-3.68-1.31-5.29-.32-2.22-.14-4.23.36-5.65.47-1.44,1.04-2.27,1.01-2.27Zm-93.38-88.93s.08-.94.43-2.39c.35-1.45,1.16-3.29,2.6-4.58,1.42-1.32,3.38-2.3,5.92-3.49,1.73-.92,1.55-1.06,1.73-.92.14.19.22,1.02.2,1.08h0s.07-.15.27-.23c.1-.04.23-.05.38-.03.08.02.17.03.25.09.12.15.29.63.42.92,1.12,2.69,1.99,5.21,2.39,7.43.42,2.2.32,4.22-.12,5.66-.42,1.45-.94,2.31-.92,2.32-.01-.03.95.02,2.63-.68,1.67-.66,4.01-2.41,5.76-5.4,1.77-2.97,2.86-6.94,2.93-11.24,0-.58.02-.99-.04-1.73-.09-.82-.21-1.7-.36-2.58-.32-1.75-.77-3.52-1.36-5.27-1.22-3.49-2.97-6.42-4.77-9.74l-.89-1.58c-3.38,2.11-6.68,4.33-9.67,6.39-2.95,2.02-6,4.58-6.9,5.85-2.71,3.15-4.7,7.17-4.87,10.8-.22,3.65,1.16,6.13,2.16,7.44,1.05,1.35,1.82,1.84,1.8,1.86Zm115.83,47.28c1.72,1.77,3.49,2.72,4.91,3.31,2.89,1.14,4.53,1.16,4.53,1.2.04-.02-1.36-1.01-3.14-3.13-1.8-2.1-3.43-5.53-2.53-9.34.78-3.84,3.54-8.35,7.35-13.07,1.91-2.36,4.07-4.78,6.4-7.24l.88-.93c.11-.11.38-.4.36-.37h.03s.07.04.09.06c.04.04.04.09.04.09,0,0,0-.04.05-.08.02-.02.05-.04.09-.04h.08s0-.04.06.04l.28.47c1.49,2.59,2.65,5.26,3.51,7.97.86,2.71,1.41,5.44,1.72,8.12.37,2.53.33,4.73-.04,6.86-.7,4.2-2.87,7.24-5.09,8.73-2.22,1.53-3.98,1.81-3.93,1.86,0-.08,1.53.7,4.74.38,1.58-.18,3.59-.77,5.62-2.09,2.04-1.3,4.04-3.31,5.67-5.92,1.61-2.56,2.87-5.88,3.42-9.33.61-3.29.87-6.99.52-10.91-.35-3.91-1.33-8.03-3.05-12.03l-.34-.76-.59-1.17c-.4-.82-.86-1.61-1.32-2.4-.93-1.58-1.95-3.08-3.04-4.5-2.18-2.8-4.47-5.36-6.86-8.16l-.11-.13c-2.71,2.67-5.34,5.23-7.91,7.9-1.27,1.36-2.53,2.72-3.72,4.13l-.89,1.05-.54.67-.9,1.18c-2.36,3.15-4.4,6.41-6.08,9.74-3.31,6.6-5.29,13.78-4.09,20.21.59,3.17,2.1,5.88,3.81,7.62Zm32.38,10.95c.25,3.45,1.33,4.96,1.24,4.97.07.03-.04-1.88,1.07-4.63,1.07-2.75,3.74-5.81,8.17-7.98,4.38-2.23,10.29-3.8,16.96-4.73,3.34-.46,6.87-.77,10.46-.85h2.69c.65-.01.44.01.48.03l.02.05c.01.06-.02.1-.03.11h0s.04-.02.09,0l.04.03s.02-.01.01.05l-.15.52c-.24.78-.51,1.55-.81,2.32-1.2,3.08-2.82,6.03-4.63,8.71-3.64,5.36-8.04,9.61-12.31,12.25-4.27,2.69-8.48,3.68-11.53,3.73-3.07.07-4.87-.49-4.87-.43.03-.05,1.26,1.34,4.39,2.76,3.08,1.42,8.42,2.48,14.74,1.04,6.29-1.38,13.29-5.02,19.35-11.03,3.02-3.01,5.83-6.61,8.06-10.91.55-1.08,1.07-2.2,1.54-3.36l.36-.94.47-1.44c.31-.98.58-1.98.8-2.99,1-4.09.77-7.86.79-11.78v-1.67c-3.98-.73-7.53-1.68-11.67-1.85-1.02-.03-2.03-.07-3.05-.04-.98,0-2.22.05-2.59.09-1.15.08-2.27.2-3.38.35-4.41.59-8.52,1.62-12.33,2.93-7.6,2.65-14.08,6.51-18.5,11.15-2.2,2.31-3.84,4.81-4.78,7.21-.95,2.4-1.19,4.62-1.09,6.34Zm225.58,103.3c-.11.1-1.25-3.77-6.07-8.96-2.43-2.54-5.86-5.26-10.45-7.42-4.57-2.19-10.23-3.83-16.76-4.66-13.03-1.67-29.52-.36-47.38,4.76-4.5,1.27-8.78,2.91-13.76,4.75-4.9,1.78-10.05,3.53-15.54,5.03-5.52,1.46-11.24,2.87-18.05,3.09-1.72.03-3.52-.01-5.5-.32-.98-.14-2.03-.38-3.13-.71-1.05-.31-2.57-.96-3.74-1.69-1.88-1.13-3.49-2.73-4.63-4.62-.91.66-1.85,1.27-2.87,1.79-2.12,1.06-4.34,1.66-6.5,1.88-4.33.44-8.31-.51-11.56-2.11-6.6-3.21-10.04-9.07-10.65-13.79-.68-4.81.62-8.32,1.5-10.47.69-1.58,1.23-2.51,1.48-2.92.06-.17.13-.31.2-.47.1.05.2.1.3.13-.64,1.91-1.12,4.68-.34,8.08.85,3.72,3.42,8.48,8.42,10.82,2.46,1.12,5.48,1.31,8.26.08,2.73-1.2,5.44-3.61,7.11-6.51.5-.86.84-1.8,1.11-2.78.64-2.33.65-4.91-.06-7.51-.97-3.68-3.11-7.33-5.95-10.57-.76-.85-1.56-1.66-2.4-2.44-2.36-2.2-5.03-4.05-8.17-5.04-4.3-1.56-9.09-2.09-14.04-1.61-9.96.97-20.26,5.67-30.22,11.96-5.87,3.72-11.66,8.03-17.44,12.76-.48.62-.96,1.24-1.47,1.84-5.9,7.04-13.44,13.03-21.99,17.72-8.47,4.7-18.33,8.23-28.69,9.69-10.35,1.52-21.21,1.35-32.11-.5-10.89-1.87-21.89-5.45-32.27-11.17-4.23-2.33-8.36-5.06-12.28-8.16-.1.21-.19.43-.29.64-3.19,6.65-7.82,12.24-13.29,15.97-5.46,3.78-11.6,5.52-17.14,5.77-5.54.26-10.59-.6-14.93-2.3-4.33-1.69-7.78-4.34-10.14-7.21-4.77-5.87-5.2-11.84-5.11-15.37.17-3.64.79-5.4.74-5.41.05,0-.36,1.9-.1,5.54.32,3.53,1.55,9.24,6.57,13.95,4.87,4.73,13.65,7.31,23.31,5.61,4.75-.86,9.55-2.97,13.53-6.6,4-3.59,7.2-8.6,9.17-14.43.26-.76.44-1.58.66-2.37,1.43-5.15,2.02-10.8,1.43-16.52,0-.09,0-.17-.01-.25-.71-6.62-3.11-13.46-7.53-18-10.07-10.64-26.07-17.27-42.86-16.17-4.66.27-8.85.75-13.31,1.67-4.4.9-8.79,2.17-13.11,3.81-8.63,3.27-16.97,8.04-24.28,14.25-7.3,6.2-13.54,13.86-17.83,22.6-4.28,8.73-6.54,18.52-6.41,28.66-7.12-4.55-12.46-12.58-14.76-20.82-1.81,7.36-6.87,14.79-16.12,20.82.13-10.14-2.13-19.93-6.41-28.66-4.28-8.74-10.52-16.4-17.83-22.6-7.31-6.2-15.65-10.97-24.28-14.25-4.32-1.64-8.71-2.91-13.11-3.81-4.46-.92-8.66-1.4-13.32-1.67-16.8-1.1-32.8,5.53-42.86,16.17-4.43,4.54-6.82,11.38-7.53,18,0,.09,0,.17-.01.25-.59,5.72,0,11.36,1.43,16.52.22.79.41,1.61.67,2.37,1.97,5.83,5.17,10.84,9.17,14.43,3.99,3.63,8.78,5.74,13.53,6.6,9.65,1.7,18.44-.87,23.31-5.61,5.02-4.71,6.25-10.42,6.57-13.95.27-3.64-.15-5.54-.1-5.54-.05,0,.57,1.77.74,5.41.09,3.53-.34,9.5-5.11,15.37-2.36,2.87-5.8,5.52-10.14,7.21-4.34,1.7-9.39,2.56-14.93,2.3-5.53-.25-11.68-1.99-17.14-5.77-5.47-3.73-10.11-9.32-13.29-15.97-.1-.21-.19-.43-.29-.64-3.92,3.11-8.05,5.84-12.28,8.16-10.39,5.72-21.38,9.3-32.27,11.17-10.9,1.86-21.76,2.03-32.11.5-10.36-1.46-20.22-4.98-28.69-9.69-8.55-4.69-16.09-10.69-21.99-17.72-.5-.6-.98-1.22-1.46-1.84-5.78-4.73-11.57-9.05-17.44-12.76-9.96-6.29-20.26-10.99-30.22-11.96-4.96-.49-9.74.04-14.04,1.61-3.14.99-5.82,2.85-8.17,5.04-.84.78-1.64,1.6-2.4,2.44-2.84,3.24-4.97,6.89-5.95,10.57-.71,2.59-.7,5.17-.06,7.51.27.97.61,1.91,1.11,2.78,1.67,2.9,4.39,5.31,7.11,6.51,2.78,1.23,5.8,1.04,8.26-.08,5.01-2.34,7.57-7.1,8.42-10.82.78-3.4.3-6.17-.34-8.08.11-.03.2-.08.3-.13.07.16.14.3.2.47.25.41.79,1.34,1.48,2.92.88,2.15,2.19,5.66,1.51,10.47-.61,4.72-4.05,10.58-10.65,13.79-3.25,1.6-7.23,2.55-11.56,2.11-2.15-.22-4.38-.82-6.5-1.88-1.02-.52-1.97-1.13-2.87-1.79-1.15,1.89-2.75,3.49-4.63,4.62-1.17.73-2.69,1.38-3.74,1.69-1.1.33-2.14.57-3.13.71-1.99.31-3.78.35-5.5.32-6.81-.23-12.53-1.63-18.05-3.09-5.48-1.51-10.63-3.25-15.54-5.03-4.98-1.84-9.25-3.48-13.76-4.75-17.86-5.11-34.35-6.42-47.38-4.76-6.52.84-12.19,2.48-16.76,4.66-4.59,2.16-8.02,4.89-10.45,7.42-4.82,5.19-5.96,9.07-6.06,8.96.02,0,.23-.9.9-2.58.66-1.69,1.78-4.19,3.89-7.12,2.11-2.92,5.29-6.23,9.82-9.14,4.5-2.94,10.28-5.41,17.06-7.12,13.57-3.36,30.94-3.88,50.59-.19,4.87.89,10.13,2.35,14.95,3.72,4.91,1.35,9.96,2.64,15.13,3.66,5.12,1,10.53,1.81,15.33,1.64,1.18-.05,2.29-.17,3.22-.38.45-.11.86-.22,1.17-.35.34-.16.27-.15.3-.19.03-.07,0-.15-.02-.2-.02-.02,4.32-2.17,4.42-2.24,0-.02,0-.12-.05-.4l.69,1.36c-.65-1.19-1.23-2.44-1.74-3.73-3.07.21-5.96.06-8.67-.22-4.06-.46-7.8-1.24-11.34-2.08-14.05-3.51-25.27-7.63-34.81-9.45-4.74-.95-8.99-1.38-12.65-1.19-3.65.18-6.68,1.03-8.93,2.19-2.26,1.15-3.74,2.5-4.67,3.46-.93.97-1.33,1.54-1.34,1.54.01,0,.28-.61,1.01-1.73.72-1.11,1.94-2.75,4.07-4.4,2.12-1.64,5.21-3.19,9.09-4.05,3.88-.9,8.47-1.17,13.54-.96,10.16.35,22.31,2.96,35.93,4.7,3.4.4,6.88.71,10.34.73,2.02.01,4.04-.1,5.96-.37-.14-2.62-.05-5.3.31-7.99.8-5.8,2.71-11.87,6.68-17.4.99-1.38,2.16-2.69,3.44-3.93,1.31-1.16,2.44-2.18,3.88-3.24,2.78-2.06,5.82-3.72,9-5.11,6.38-2.73,13.37-4.39,20.75-4.83,3.69-.22,7.49-.11,11.36.4,3.84.47,7.99,1.63,11.45,2.89,5.32,1.89,10.51,4.04,15.73,6.39.43-2.6,1.07-5.12,1.94-7.51,2.65-7.36,7.19-13.36,11.94-18.11,4.8-4.82,10.28-8.59,16.06-10.69,5.76-2.13,11.74-2.49,16.93-1.37,10.46,2.23,17.52,9.62,19.15,16.66.47,1.9.47,3.74.19,5.41-.03,1.83-.46,3.55-1.14,4.98-1.26,2.75-3.29,4.61-5.23,5.69-1.97,1.07-3.85,1.41-5.32,1.46-.36,0-.63-.03-.95-.04.03-.1.05-.2.05-.3.26-.01.47,0,.76-.02,1.38-.17,3.11-.59,4.82-1.7.91-.58,1.81-1.38,2.6-2.34.7-.85,1.32-1.83,1.79-2.96.06-.15.09-.31.14-.47.83-2.34.98-5.22-.27-7.89-1.28-2.79-4.12-5.3-7.51-6.77-6.9-3-16.7-1.01-24.51,4.98-3.91,3.06-7.23,6.95-8.57,12.11-1.63,5.27-2.25,11.05-1.16,16.76.24,1.29.59,2.57,1.01,3.84.62,1.87,1.43,3.7,2.42,5.48,1.29,2.32,2.88,4.54,4.77,6.58,2.11,2.24,4.76,4.66,7.23,6.13,2.63,1.57,5.72,2.71,9.04,3.47,13.4,2.92,29.52.56,44.24-5.86,7.37-3.25,14.45-7.68,20.4-13.36,5.94-5.67,10.61-12.67,12.95-20.56l16.06,2.51c-3.55,10.4-11.92,21.23-19.4,27.84-7.51,6.65-15.95,11.39-24.47,14.79-8.56,3.38-17.27,5.4-25.85,6.24-8.58.8-17.1.46-25.2-1.65-4.04-1.07-7.99-2.59-11.61-4.83-1.79-1.1-3.57-2.45-5.03-3.86-1.37-1.26-2.79-2.7-4.05-4.16-1.81-2.08-3.4-4.31-4.75-6.65-2.48-4.25-4.16-8.85-4.89-13.47-.19-1.16-.3-2.31-.38-3.45-.4-5.94.6-11.64,2.37-16.66.57-1.53,1.06-2.87,1.83-4.44.75-1.49,1.65-2.86,2.62-4.1,1.95-2.49,4.21-4.5,6.55-6.19,4.72-3.34,9.84-5.38,14.87-6.2,2.82-.47,5.64-.49,8.3-.1-4.41-3.72-13.56-4.01-18.34-2.1-5,1.97-9.76,5.42-13.96,9.93-4.2,4.54-8,9.93-10.13,16.23-1.06,3.08-1.7,6.36-1.88,9.73-.19,3.5.12,7.1.99,10.67.58,2.46,1.42,4.87,2.48,7.23,1.44,3.21,3.3,6.31,5.52,9.27,3.56,4.73,8.04,9.05,13.21,12.77,2.9,2.08,5.99,3.98,9.27,5.64,7.8,3.98,16.32,6.82,25.53,7.85,9.2,1.08,18.93.66,28.63-1.31,9.69-1.96,19.37-5.47,28.24-10.71,5.47-3.24,10.63-7.17,15.14-11.76-.3-2.2-.48-4.46-.5-6.77-.02-8.22,1.58-17.41,7.47-25.7.36-.52.77-1.01,1.16-1.51l1.11-1.32c.76-.87,1.53-1.74,2.35-2.58,1.62-1.69,3.36-3.31,5.2-4.84,3.68-3.07,7.78-5.79,12.23-8.07,8.32-4.26,17.86-6.96,27.97-7.6l-.02-7.35.03-10.08c.01-3.35.39-6.99,1.38-10.8.48-1.91,1.16-3.83,1.9-5.73l1.27-2.81.92-1.74c1.21-2.16,2.59-4.18,4.1-6.08,6.03-7.58,14.34-12.74,22.84-14.92,2.12-.57,4.26-.93,6.36-1.15,2.12-.22,4.09-.3,6.32-.2,1.95.11,3.83.41,5.64.83-1.1-1.36-2.18-2.84-3.18-4.48-1.93-3.2-3.45-7-4.25-11.01-.21-1-.38-2.01-.51-3.03l-.1-.77c-.04-.33-.08-.81-.1-1.26l-.14-2.75c-.04-3.65.11-7.22.23-11.02l5.99,1.72c1.79.58,3.57,1.04,5.38,1.9.9.38,1.8.77,2.68,1.26l1.04.56c.25.13.5.29.73.44,1.95,1.18,3.73,2.54,5.34,4,3.24,2.91,5.78,6.23,7.73,9.57,2.1,3.63,3.52,7.23,4.51,10.65.5-3.5,1.24-7.08,2.29-10.73l.65-2.12c.27-.81.35-1.13.92-2.59.94-2.43,2.07-4.98,3.33-7.25,1.14-2.08,7.44-14.2,10.5-19.49,0,0,9.32,17.34,10.5,19.49,1.26,2.27,2.39,4.82,3.33,7.25.57,1.45.64,1.78.92,2.59l.65,2.12c1.05,3.65,1.78,7.24,2.29,10.73.99-3.42,2.41-7.02,4.51-10.65,1.95-3.34,4.48-6.66,7.73-9.57,1.62-1.46,3.39-2.82,5.34-4,.24-.15.48-.3.74-.44l1.04-.56c.89-.49,1.78-.88,2.68-1.26,1.81-.86,3.59-1.32,5.38-1.9l5.99-1.72c.12,3.8.28,7.37.24,11.02l-.15,2.75c-.02.45-.06.93-.1,1.26l-.1.77c-.13,1.02-.3,2.03-.51,3.03-.8,4.01-2.32,7.81-4.25,11.01-1.01,1.64-2.08,3.13-3.18,4.48,1.81-.42,3.69-.73,5.64-.83,2.24-.1,4.2-.02,6.32.2,2.1.22,4.24.59,6.36,1.15,8.5,2.19,16.81,7.35,22.84,14.92,1.51,1.89,2.89,3.92,4.1,6.08l.92,1.74,1.26,2.81c.74,1.9,1.43,3.82,1.91,5.73.99,3.82,1.36,7.46,1.38,10.8l.03,10.08-.02,7.35c10.11.64,19.65,3.33,27.97,7.6,4.45,2.28,8.56,5,12.23,8.07,1.84,1.53,3.57,3.15,5.2,4.84.81.84,1.59,1.71,2.35,2.58l1.11,1.32c.39.51.8,1,1.16,1.51,5.89,8.29,7.48,17.48,7.47,25.7-.02,2.31-.2,4.56-.5,6.77,4.51,4.59,9.67,8.53,15.14,11.76,8.87,5.24,18.55,8.75,28.24,10.71,9.69,1.97,19.43,2.39,28.62,1.31,9.21-1.03,17.73-3.87,25.53-7.85,3.28-1.66,6.37-3.56,9.27-5.64,5.17-3.71,9.65-8.04,13.21-12.77,2.22-2.95,4.08-6.06,5.52-9.27,1.06-2.37,1.91-4.78,2.49-7.23.87-3.57,1.18-7.17.99-10.67-.18-3.37-.83-6.65-1.89-9.73-2.13-6.3-5.92-11.68-10.13-16.23-4.19-4.5-8.96-7.96-13.95-9.93-4.78-1.91-13.93-1.61-18.34,2.1,2.66-.4,5.47-.37,8.3.1,5.03.82,10.15,2.86,14.87,6.2,2.35,1.69,4.6,3.7,6.55,6.19.98,1.24,1.87,2.6,2.62,4.1.77,1.57,1.27,2.91,1.83,4.44,1.77,5.01,2.77,10.72,2.37,16.66-.08,1.14-.19,2.29-.38,3.45-.73,4.62-2.42,9.21-4.89,13.47-1.36,2.33-2.94,4.57-4.75,6.65-1.26,1.46-2.68,2.9-4.05,4.16-1.46,1.41-3.25,2.76-5.03,3.86-3.62,2.24-7.57,3.76-11.61,4.83-8.1,2.11-16.62,2.45-25.2,1.65-8.59-.83-17.3-2.86-25.85-6.24-8.53-3.39-16.96-8.14-24.47-14.79-7.48-6.61-15.86-17.44-19.41-27.84l16.07-2.51c2.34,7.89,7.01,14.89,12.95,20.56,5.95,5.68,13.03,10.11,20.4,13.36,14.72,6.42,30.85,8.79,44.24,5.86,3.31-.75,6.41-1.9,9.04-3.47,2.47-1.46,5.13-3.88,7.23-6.13,1.9-2.04,3.48-4.26,4.77-6.58.99-1.77,1.8-3.6,2.42-5.48.42-1.27.77-2.55,1.01-3.84,1.09-5.71.47-11.49-1.16-16.76-1.34-5.15-4.67-9.04-8.58-12.11-7.81-6-17.61-7.99-24.51-4.98-3.39,1.47-6.23,3.98-7.51,6.77-1.25,2.67-1.09,5.55-.27,7.89.06.15.08.32.14.47.47,1.14,1.09,2.11,1.78,2.96.8.97,1.7,1.76,2.61,2.34,1.71,1.11,3.44,1.53,4.82,1.7.29.02.5.01.76.02,0,.1.02.2.04.3-.31.01-.58.05-.95.04-1.47-.05-3.35-.39-5.32-1.46-1.94-1.08-3.97-2.94-5.23-5.69-.68-1.43-1.1-3.15-1.14-4.98-.28-1.67-.27-3.51.19-5.41,1.63-7.03,8.69-14.43,19.15-16.66,5.19-1.12,11.17-.76,16.93,1.37,5.78,2.1,11.26,5.87,16.06,10.69,4.75,4.75,9.29,10.75,11.94,18.11.88,2.38,1.52,4.9,1.94,7.51,5.22-2.36,10.41-4.5,15.73-6.39,3.47-1.26,7.62-2.42,11.45-2.89,3.87-.51,7.67-.62,11.36-.4,7.39.44,14.37,2.1,20.75,4.83,3.19,1.39,6.23,3.05,9.01,5.11,1.45,1.06,2.57,2.09,3.88,3.24,1.28,1.25,2.46,2.56,3.44,3.93,3.97,5.54,5.88,11.6,6.68,17.4.36,2.69.45,5.37.32,7.99,1.92.26,3.94.38,5.96.37,3.46-.02,6.94-.33,10.33-.73,13.62-1.75,25.77-4.35,35.93-4.7,5.08-.21,9.67.06,13.54.96,3.88.87,6.97,2.41,9.09,4.05,2.13,1.65,3.35,3.29,4.07,4.4.72,1.12,1,1.74,1.01,1.73,0,0-.42-.57-1.34-1.54-.93-.96-2.41-2.31-4.67-3.46-2.25-1.16-5.28-2.01-8.93-2.19-3.66-.19-7.91.24-12.65,1.19-9.54,1.82-20.76,5.94-34.81,9.45-3.54.84-7.28,1.62-11.34,2.08-2.72.28-5.61.43-8.68.22-.51,1.3-1.08,2.55-1.74,3.73l.69-1.36c-.04.28-.04.38-.05.4.1.07,4.44,2.22,4.42,2.24-.03.05-.05.13-.02.2.03.04-.04.03.3.19.31.13.72.24,1.17.35.93.21,2.04.33,3.22.38,4.8.17,10.21-.64,15.33-1.64,5.17-1.03,10.22-2.31,15.13-3.66,4.82-1.37,10.08-2.83,14.95-3.72,19.65-3.69,37.02-3.18,50.59.19,6.77,1.7,12.56,4.18,17.05,7.12,4.52,2.92,7.71,6.22,9.82,9.14,2.12,2.93,3.23,5.43,3.89,7.12.66,1.69.87,2.59.9,2.58Zm-786.65-47.17c-.41-1.31-.78-2.63-1.08-3.96-.11-.5-.19-.99-.28-1.49-.25-.14-.5-.3-.75-.43-6.41-3.47-12.84-6.71-19.05-9.36-1.54-.65-3.08-1.27-4.52-1.77-1.37-.48-2.83-.86-4.31-1.19-2.95-.65-6-.95-9.01-1.02-6.03-.11-12.01.79-17.37,2.57-2.68.89-5.2,2.01-7.46,3.35-1.11.65-2.19,1.42-3.26,2.25-1.07.76-1.85,1.54-2.7,2.43-3.28,3.59-5.41,8.35-6.56,13.07-.43,1.82-.68,3.63-.83,5.44-.39,4.65.13,9.16,1.5,13.12.46,1.33,1.01,2.61,1.66,3.79.6,1.09,1.25,2.14,2.02,3.09.44.55.93,1.08,1.43,1.6.87.9,1.8,1.72,2.71,2.35,1.48,1.02,3.14,1.72,4.83,2.13,3.4.81,6.89.46,9.87-.59,3.48-1.19,5.76-3.67,7.29-6.37-.9.92-1.97,1.8-3.28,2.6-2.66,1.61-8.13,1.7-11.73.6-1.78-.52-3.51-1.43-5.03-2.58-1.54-1.13-3.01-2.52-4.25-4.22-.8-1.06-1.44-2.28-1.94-3.59-1.08-2.82-1.44-6.07-.9-9.21.74-4.61,2.86-9,5.78-12.97.26-.34.56-.67.82-1,2.84-3.54,6.31-6.97,11.2-9.09,4.88-2.28,10.73-3.41,16.55-3.24,11.78.33,23.41,4.99,34.45,11.2,1.4.79,2.8,1.62,4.19,2.47Zm301.96-83.84c.95-2.34,2.16-4.73,3.73-7.1,2.13-3.21,4.93-6.36,8.43-9.07.19-.25.37-.47.57-.73,3-3.93,6.6-8.61,8.87-14.03,1.12-2.72,1.89-5.61,2.23-8.79.09-.79.16-1.6.21-2.43l.03-.62c0-.14,0-.12-.01-.13l-.04-.03c-.06-.03-.1-.01-.12,0l-.02.03h0s0-.03,0-.03h0s-.28.14-.28.14c-.19.09-.37.19-.55.3-1.48.81-2.86,1.76-4.17,2.78-2.63,2.02-4.92,4.41-6.88,6.92-3.93,5.04-6.58,10.54-8.39,15.35-1.05,2.88-1.86,5.5-2.48,7.77-.19,3.4-.58,6.64-1.13,9.67Zm-58.67-42.77l.03.62c.05.82.11,1.63.21,2.43.35,3.18,1.12,6.08,2.24,8.79,2.26,5.42,5.86,10.1,8.86,14.03.2.25.37.48.57.73,3.5,2.71,6.3,5.87,8.42,9.07,1.57,2.37,2.78,4.76,3.74,7.1-.56-3.03-.95-6.27-1.14-9.68-.62-2.27-1.42-4.88-2.47-7.77-1.81-4.81-4.45-10.31-8.39-15.35-1.96-2.51-4.25-4.9-6.88-6.92-1.31-1.02-2.7-1.96-4.17-2.78-.18-.11-.37-.21-.55-.3l-.28-.15h0s0,.02,0,.03c0,0,0,.01,0,.01l-.02-.03s-.06-.04-.11,0l-.04.03s-.01,0-.01.13Zm1.96,87.48c3.66,1.01,7.97.53,10.68-2.27,2.78-2.7,3.74-7.53,2.01-11.73-1.65-4.25-5.84-7.79-11.4-9.95-2.06-.79-5.4-1.25-8.71-1.45-3.36-.19-6.92-.15-10.52.09-3.59.24-7.25.68-10.81,1.36l-2.64.57-1.36.34c-1.03.28-1.97.54-2.97.88-9.77,4.15-13.13,11.15-14.23,14.62,14.35-.25,29.76,2.64,44.35,9.31-2.11-1.59-3.76-3.28-5.07-4.76-3.96-4.76-5.3-7.84-5.37-7.8.04-.06,2.22,2.58,6.91,6.15,2.35,1.71,5.43,3.66,9.13,4.65Zm76.84,5.63c-1.26.33-2.62.55-4.07.57-2.94.06-6.28-.77-9.14-2.76-5.85-3.88-9.07-12.21-7.11-20.22.9-3.99,3-7.78,5.8-10.9,2.8-3.13,6.25-5.64,9.95-7.56,4.45-2.2,8.48-2.9,12.58-3.55,4.09-.57,8.2-.81,12.39-.79,4.19.03,8.46.31,12.85.99,1.1.17,2.2.37,3.32.6l1.61.35s0-.02,0-.02c.02-.02.02-.04.02-.05l-.02-.02s.05.05.1.01c.01-.01.03-.02.04-.05v-.04s-.49-1.03-.49-1.03c-.76-1.49-1.63-2.91-2.59-4.25-3.85-5.4-9.23-9.38-15.04-11.52-1.45-.55-2.94-.97-4.44-1.29-1.48-.32-3.11-.56-4.42-.65-2.78-.19-5.59.18-8.26.95-5.36,1.57-10,4.76-13.48,8.46-7.06,7.53-9.45,16.59-10.37,22.64-.88,6.18-.61,9.78-.68,9.76.07-.01-1.16-3.35-1.7-9.84-.2-2.77-.23-6.14.31-10-2.07,5.69-4.77,10.03-7.17,12.7-1.29,1.44-2.41,2.44-3.28,3.12-.72.84-1.13,1.25-1.12,1.26-.01,0,.07-.2.2-.57-.56.39-.87.56-.85.57-.03-.01.61-.8,1.47-2.35,1.16-3.52,3.16-10.85,3.45-20.88.24-7.15-.3-15.67-2.22-24.6-.97-4.45-2.29-9.01-4.12-13.3-.56-1.29-.82-1.83-.95-2.05-.13.21-.4.76-.95,2.05-1.83,4.29-3.15,8.85-4.12,13.3-1.92,8.93-2.46,17.45-2.22,24.6.29,10.02,2.29,17.36,3.45,20.88.87,1.56,1.5,2.34,1.47,2.35.01-.02-.3-.18-.86-.57.14.37.22.58.2.57.01,0-.4-.42-1.12-1.26-.87-.69-1.99-1.68-3.28-3.12-2.4-2.67-5.09-7-7.17-12.7.54,3.85.52,7.22.31,9.99-.54,6.49-1.77,9.83-1.7,9.84-.07.02.21-3.58-.67-9.76-.92-6.05-3.32-15.1-10.37-22.64-3.48-3.71-8.12-6.89-13.47-8.46-2.67-.78-5.49-1.14-8.27-.95-1.31.09-2.94.33-4.42.65-1.5.32-2.98.74-4.43,1.29-5.81,2.13-11.19,6.11-15.05,11.52-.96,1.34-1.84,2.77-2.59,4.25l-.5,1.03v.04s.03.03.05.05c.05.04.1-.01.1-.01v.02s-.02.03,0,.05c0,0,.03,0,0,.02l1.61-.35c1.12-.23,2.22-.42,3.32-.6,4.39-.67,8.66-.96,12.85-.99,4.19-.02,8.31.22,12.39.79,4.1.65,8.12,1.35,12.58,3.55,3.7,1.92,7.15,4.42,9.95,7.56,2.8,3.12,4.9,6.91,5.8,10.9,1.96,8.01-1.26,16.34-7.11,20.22-2.86,1.99-6.2,2.83-9.14,2.76-1.46-.02-2.81-.24-4.07-.57,3.31,1.86,6.57,3.91,9.74,6.21,1.18.85,2.34,1.74,3.49,2.66.1-.97.17-1.95.34-2.9,1.13-6.44,3.99-11.94,7.15-15.57,3.16-3.7,6.39-5.72,8.62-6.9,2.26-1.17,3.59-1.56,3.58-1.58.02.01-.76,1.19-1.93,3.29-1.15,2.1-2.65,5.16-3.63,8.89-1,3.73-1.39,8.04-.99,12.78.37,4.75,1.49,10,2.93,15.73.35,1.38.71,2.77,1.07,4.14,1.8,2.47,3.5,5.05,5.05,7.75.86,1.49,1.58,3.06,2.13,4.69.43-1.67,1.05-3.25,1.89-4.69,1.56-2.7,3.25-5.28,5.05-7.75.36-1.37.72-2.75,1.07-4.14,1.44-5.73,2.56-10.97,2.93-15.73.4-4.75,0-9.06-.99-12.78-.98-3.72-2.48-6.78-3.63-8.89-1.17-2.11-1.95-3.28-1.93-3.29,0,.02,1.32.41,3.58,1.58,2.23,1.19,5.46,3.21,8.62,6.9,3.16,3.64,6.01,9.13,7.14,15.57.17.95.24,1.93.35,2.9,1.15-.92,2.31-1.81,3.49-2.66,3.17-2.3,6.42-4.35,9.74-6.21Zm51.94-13.17c-1.1-3.47-4.46-10.47-14.23-14.62-.99-.34-1.94-.6-2.97-.88l-1.36-.34-2.64-.57c-3.56-.69-7.22-1.12-10.82-1.36-3.59-.24-7.15-.28-10.52-.09-3.31.2-6.64.65-8.71,1.45-5.55,2.16-9.75,5.7-11.39,9.95-1.74,4.2-.77,9.03,2.01,11.73,2.71,2.81,7.02,3.28,10.68,2.27,3.71-.99,6.78-2.94,9.13-4.65,4.69-3.57,6.87-6.21,6.91-6.15-.07-.04-1.41,3.03-5.37,7.8-1.31,1.49-2.96,3.17-5.06,4.76,14.59-6.67,29.99-9.56,44.35-9.31Zm272.47,56.58c-.15-1.81-.4-3.62-.83-5.44-1.14-4.72-3.28-9.48-6.56-13.07-.86-.89-1.63-1.67-2.7-2.43-1.08-.83-2.15-1.6-3.26-2.25-2.26-1.34-4.79-2.46-7.46-3.35-5.36-1.78-11.33-2.68-17.37-2.57-3.02.07-6.06.37-9.02,1.02-1.48.32-2.94.7-4.31,1.19-1.44.5-2.98,1.12-4.52,1.77-6.21,2.65-12.64,5.89-19.05,9.36-.25.13-.5.29-.75.43-.1.5-.17.99-.28,1.49-.29,1.33-.67,2.65-1.08,3.96,1.39-.85,2.79-1.67,4.19-2.47,11.04-6.21,22.67-10.88,34.45-11.2,5.82-.17,11.67.96,16.55,3.24,4.89,2.12,8.36,5.54,11.21,9.09.27.33.56.66.82,1,2.92,3.97,5.05,8.36,5.78,12.97.54,3.14.18,6.39-.9,9.21-.5,1.3-1.13,2.52-1.94,3.59-1.23,1.7-2.71,3.09-4.25,4.22-1.53,1.15-3.25,2.06-5.03,2.58-3.6,1.1-9.07,1.01-11.72-.6-1.31-.8-2.38-1.68-3.28-2.6,1.53,2.7,3.81,5.17,7.29,6.37,2.97,1.05,6.47,1.4,9.87.59,1.69-.4,3.35-1.11,4.83-2.13.92-.63,1.84-1.46,2.71-2.35.5-.51.99-1.05,1.43-1.6.76-.94,1.42-1.99,2.02-3.09.65-1.18,1.19-2.46,1.66-3.79,1.37-3.96,1.89-8.47,1.51-13.12Zm-689.06,4.19s-.02-.1-.03-.15c-.38-1.23-.73-2.09-.97-2.65.24.69.63,1.68,1,2.81Zm654.45,0c.37-1.12.76-2.11,1-2.81-.24.56-.58,1.42-.97,2.65-.01.05-.02.1-.03.15Zm-205.72-79.25c-.49,3.9-1.1,7.31-1.95,10.04-.83,2.74-2,4.73-3.19,5.97-1.19,1.21-2.2,1.68-2.18,1.7,0-.04.99.37,3.03.15,2.01-.22,5.02-1.45,7.8-3.97,2.81-2.48,5.45-6.03,7.61-10.23l.79-1.61c.27-.63.45-.88.83-2,.7-1.95,1.33-4.03,1.89-6.19,1.09-4.33,1.81-8.77,2.63-13.6-2.79-.18-5.84-.29-8.75-.36-4.67-.11-10.16,1.2-14.92,3.35-2.87,1.37-5.36,3.02-7.57,4.85-4.41,3.66-7.47,8.08-9.02,12.16-1.59,4.1-1.62,7.69-1.28,9.93.35,2.28.92,3.38.9,3.39.04.09,1.6-5.03,6.71-9.11,2.51-2.07,5.79-3.97,9.61-5.57,1.9-.79,3.96-1.53,6.02-2.13.15.16.12.31.1.31,0,0,.05-.08.18-.16.16-.11.4-.18.64,0,.13.08.25.22.37.43.1-.04-.04.77-.08,1.19l-.18,1.48Zm24.59,27.25l-.21.14-.47.14c-.64.17-1.27.33-1.87.45-1.22.26-2.37.4-3.47.46-4.38.2-7.56-1.35-7.53-1.26.01,0,.23.77.99,2.08.75,1.3,2.14,3.17,4.59,4.87,1.21.83,2.68,1.63,4.34,2.24.83.32,1.71.58,2.62.81l.71.16c.32.06.65.1.99.14.68.08,1.38.15,2.09.18,2.89.17,6.04-.09,9.28-.61,3.21-.57,6.55-1.31,10.21-2.19-.15-.8-.43-1.76-.74-2.8l-.89-2.95c-.61-1.95-1.17-3.94-2.34-6-1.94-3.63-5.16-7.25-8.88-9.71l-1.34-.88c-.37-.22-.66-.35-.99-.53-.63-.34-1.29-.62-1.93-.9-1.3-.53-2.6-.97-3.89-1.27-5.18-1.27-10.05-.77-13.66.51-3.65,1.28-6.04,3.16-7.45,4.57-1.42,1.42-1.96,2.39-1.98,2.36-.04.1,4.56-.84,10.07.63,2.74.71,5.63,2.02,8.33,3.85.68.45,1.34.95,1.98,1.46.32.27.65.51.95.8l.45.39.04.13c0,.25-.2.26-.19.27-.03-.02.28.02.67.3.47.33.64,1.08-.16,1.89-.1.1-.21.19-.33.29Zm-43.55-58.59c.13-3.04.07-6.31-.45-9.82-.51-3.45-1.54-7.38-3.47-10.98-3.31-6.35-7.68-11.82-12.66-15.96-4.95-4.15-10.63-6.77-15.61-7.52-5.01-.8-8.97.16-11.37,1.1-2.43.97-3.53,1.84-3.55,1.82,0,.02,1.43.07,3.77.55,2.33.49,5.49,1.54,8.56,3.69,6.21,4.15,11.93,12.85,17.36,23.33,2.23,4.15,3.51,9.51,4.62,14.72l2.84,14.48c1.67,8.58,3.67,13.95,3.7,13.9-.04-.04,1.77-5.25,3.89-13.77,1.01-4.29,2.06-9.46,2.36-15.54Zm-12.2-54.01c4.42,7,9.33,13.95,13.06,21.4,1.88,3.73,3.37,7.42,4.48,11.11.56,1.84,1.03,3.69,1.4,5.52.36,1.84.67,3.7.83,5.31.67,6.7-.77,13.32-2.73,18.74-4.04,10.95-9.37,17.11-9.26,17.11-.01-.02,1.81-.76,4.77-2.79,2.94-2.03,7.06-5.33,11.12-10.61,3.99-5.22,8.1-12.69,8.93-22.33.19-2.45.17-4.75.04-7.13-.15-2.38-.47-4.82-.96-7.26-.98-4.9-2.69-9.84-5.03-14.48-4.7-9.33-11.06-16.41-16.42-22.33-5.42-5.92-9.9-10.89-12.34-15.75-2.51-4.8-2.91-9.56-2.7-12.93.19-3.38.72-5.32.67-5.32.04.03-1.32,1.45-2.96,4.7-1.62,3.16-3.46,8.73-2.28,15.76,1.09,7.01,4.97,14.34,9.38,21.28Zm29.41,60.91c-2.26,3-3.19,4.84-3.21,4.83.01.02,1.68-1.21,4.8-3.06,3.11-1.84,7.71-4.27,13.52-6.1,5.77-1.81,12.88-2.99,20.07-2.07,7.17.86,14.22,4.09,17.92,9.71.48.71.85,1.36,1.34,2.32.5.95.92,1.84,1.3,2.72.77,1.76,1.34,3.47,1.66,5.04.62,3.17.34,5.53-.86,7.48-1.17,1.99-3.58,3.61-6.21,4.28-2.62.71-5.34.54-7.38-.34-2.07-.86-3.52-2.51-4.28-4.52-.76-1.99-.86-4.14-.78-5.87.22-3.52.88-5.55.82-5.55.05.04-1.43,1.48-3.13,4.96-.8,1.75-1.68,4.09-1.67,7.21-.04,3.05,1.31,7.09,4.62,9.96,3.24,2.89,7.84,4.52,12.79,4.49,4.89-.03,10.58-1.73,14.99-6.33,2.18-2.26,3.85-5.22,4.74-8.36.91-3.14,1.06-6.37.75-9.42-.33-3.04-1.1-5.92-2.11-8.62-.51-1.35-1.1-2.67-1.69-3.89-.59-1.24-1.41-2.74-2.31-4.07-3.64-5.44-8.97-9.3-14.34-11.43-5.4-2.17-10.85-2.81-15.82-2.6-10.01.47-18.05,4.19-23.82,8.08-5.79,3.96-9.46,8.16-11.73,11.14Zm113.68,47.62c-7.93,0-7.93,12.3,0,12.3s7.93-12.3,0-12.3Zm-234.95,7.79c-7.93,0-7.93,12.3,0,12.3s7.93-12.3,0-12.3Zm38.54-22.96c-7.93,0-7.93,12.3,0,12.3s7.93-12.3,0-12.3Zm302.6,68.07h-.82c-3.35,0-6.15,2.8-6.15,6.15s2.8,6.15,6.15,6.15h.82c3.35,0,6.15-2.8,6.15-6.15s-2.8-6.15-6.15-6.15Zm-172.83-91.44h-.61c-3.35,0-6.15,2.8-6.15,6.15s2.8,6.15,6.15,6.15h.61c3.35,0,6.15-2.8,6.15-6.15s-2.8-6.15-6.15-6.15Zm126.7,21.53c-5.55,0-5.55,8.61,0,8.61s5.55-8.61,0-8.61Zm-34.44-21.53c-5.55,0-5.55,8.61,0,8.61s5.55-8.61,0-8.61Zm-39.98,6.77c-5.55,0-5.55,8.61,0,8.61s5.55-8.61,0-8.61Zm-14.76,27.68c-2.35,0-4.31,1.96-4.31,4.31v.61c0,2.35,1.96,4.31,4.31,4.31s4.31-1.96,4.31-4.31v-.61c0-2.35-1.96-4.31-4.31-4.31Zm22.14,22.76c-5.55,0-5.55,8.61,0,8.61s5.55-8.61,0-8.61Zm-116.24-36.29c-5.55,0-5.55,8.61,0,8.61s5.55-8.61,0-8.61Zm25.22-59.04c-5.55,0-5.55,8.61,0,8.61s5.55-8.61,0-8.61Zm-43.05,135.31c-5.55,0-5.55,8.61,0,8.61s5.55-8.61,0-8.61Zm-325.36-46.33c7.93,0,7.93-12.3,0-12.3s-7.93,12.3,0,12.3Zm196.41-15.17c7.93,0,7.93-12.3,0-12.3s-7.93,12.3,0,12.3Zm-308.75,61.92c0,3.35,2.8,6.15,6.15,6.15h.82c3.35,0,6.15-2.8,6.15-6.15s-2.8-6.15-6.15-6.15h-.82c-3.35,0-6.15,2.8-6.15,6.15Zm172.83-91.44c0,3.35,2.8,6.15,6.15,6.15h.61c3.35,0,6.15-2.8,6.15-6.15s-2.8-6.15-6.15-6.15h-.61c-3.35,0-6.15,2.8-6.15,6.15Zm-120.55,23.99c5.55,0,5.55-8.61,0-8.61s-5.55,8.61,0,8.61Zm34.44-21.53c5.55,0,5.55-8.61,0-8.61s-5.55,8.61,0,8.61Zm39.98,6.77c5.55,0,5.55-8.61,0-8.61s-5.55,8.61,0,8.61Zm10.46,23.37v.61c0,2.35,1.96,4.31,4.31,4.31s4.3-1.96,4.3-4.31v-.61c0-2.35-1.96-4.31-4.3-4.31s-4.31,1.96-4.31,4.31Zm-17.84,27.06c5.55,0,5.55-8.61,0-8.61s-5.55,8.61,0,8.61Zm116.24-36.29c5.55,0,5.55-8.61,0-8.61s-5.55,8.61,0,8.61Zm-25.22-59.04c5.55,0,5.55-8.61,0-8.61s-5.55,8.61,0,8.61Zm43.05,135.31c5.55,0,5.55-8.61,0-8.61s-5.55,8.61,0,8.61Z"/>
  </g>
</svg>