<svg xmlns="http://www.w3.org/2000/svg" data-name="Layer 2" viewBox="0 0 812.9 204.2"><defs><linearGradient id="a" x1="0" x2="812.9" y1="102.1" y2="102.1" gradientUnits="userSpaceOnUse"><stop offset="0" stop-color="#8d5f00"/><stop offset="0" stop-color="#b8881e"/><stop offset=".2" stop-color="#fad27a"/><stop offset=".4" stop-color="#eac063"/><stop offset=".6" stop-color="#aa8121"/><stop offset=".8" stop-color="#d3a84e"/><stop offset="1" stop-color="#fffbaa"/></linearGradient></defs><path fill="url(#a)" d="M591.3 103.2a22.5 22.5 0 0 1-9.6 2.3c-3 0-5.3-.7-7-1.5-3.5-1.8-4.6-3.5-4.6-3.5s2 .8 5.2.7c3.2 0 7.4-1.7 10.8-5.6 1.8-1.9 3.2-4 4.5-6.9a52.3 52.3 0 0 0 5.1-19.7v-.7l-.2-.1-.1-.2-.7.1-1.5.4c-4 1-7.7 2-11.2 3.2a41 41 0 0 0-15.9 8.5 13 13 0 0 0-3.5 11.1c.4 3.3 1.2 5.2 1.2 5.2s-1.7-1-3.9-4.1c-1-1.6-2.2-3.7-2.8-6.6a18 18 0 0 1 1-10.2c3-7.3 9.7-13.3 17.4-17.9 3.8-2.2 8-4.2 12.4-5.9l1.7-.6 1-.4 1.6-.4a136 136 0 0 1 6.4-1.8l13.2-2.9v.2c.6 4.4 1.3 8.5 1.7 12.7.2 2.2.2 4.4.2 6.6l-.3 3.3-.1 1.5-.2 1a48 48 0 0 1-4.7 14.2c-.4.8-6.8 10.2-7.6 10.7a30.7 30.7 0 0 1-9.5 7.3ZM812.5 90c-1.3-7.3-5.2-14-10.3-20a66.7 66.7 0 0 0-25.4-17.8l-6.1-2.2a95.4 95.4 0 0 0-13.3-3 165.5 165.5 0 0 0-58.6 1.9c-5 1-10.5 2.5-15.6 4.4A621.8 621.8 0 0 0 619 82.2c-2.3 3.9-15.1 16.3-16 19 8.9-1.8 18 .2 19.4-.8a472.1 472.1 0 0 1 21.8-12.5 660.8 660.8 0 0 1 43-20.9c4.6-2 9-3.4 13.7-4.8 9.2-2.5 18.4-4.1 27.5-5 18-1.5 35.3-.5 49.3 5.3a59 59 0 0 1 18 11.7 38 38 0 0 1 10.5 16 18 18 0 0 1-2.2 15.6 28.4 28.4 0 0 1-11.7 9.6c-8.8 4-18.2 1.6-22.6-3.3-2.2-2.4-3.1-5.4-2.5-8a9.7 9.7 0 0 1 3.6-5.1c2.9-2.2 4.8-2.6 4.7-2.7 0 0-1.8.4-4.8 2.2-1.5 1-3.4 2.5-4.4 5.1-1 2.6-.5 6.2 1.7 9.2 4.3 6 14.3 9.9 24.8 6.4a32.4 32.4 0 0 0 14.4-9.6 23 23 0 0 0 5.3-19.6ZM183 96c2.5 1.4 5 2.8 7.3 4.3 2.4 1.5 18 1.8 22.5 2.7 0 0-8.2-11.9-13.3-17.7-2-2.3-5.3-3-7.9-4.3a500.4 500.4 0 0 0-45.8-21.5c-5-2-10-4-15-5.8-5-1.9-10.4-3.4-15.4-4.6A164.7 164.7 0 0 0 57 46.7a103.4 103.4 0 0 0-19.6 5 64.1 64.1 0 0 0-25.7 17.2A44.4 44.4 0 0 0 .7 88.6a22.7 22.7 0 0 0 4.2 20.1c2 2.6 4.4 4.6 6.8 6.2 2.4 1.7 5 3 7.5 4a25 25 0 0 0 15 .8c4.4-1.2 8-3.6 10.4-6.5 2.3-3 3-6.7 2.1-9.3-1-2.7-2.8-4.4-4.3-5.3-3.2-2-5-2.3-5-2.3s1.8.5 4.6 2.6c1.3 1 3 2.6 3.6 5 .8 2.4 0 5.4-2.1 7.8-4.1 5-13.3 7.7-22.1 4a27.8 27.8 0 0 1-12-9.2 17.8 17.8 0 0 1-3-15.3 36 36 0 0 1 9.8-16A59 59 0 0 1 34 63c13.8-6.1 31-7.3 49.2-5.9 9 .8 18.4 2.3 27.7 4.8 4.7 1.3 9.2 2.8 13.8 4.7A660.1 660.1 0 0 1 183 95.9Zm84-12.8c2.6 1.5 4.2 1.9 4.2 1.9s-1-1.4-2.1-3.9a16.4 16.4 0 0 1-1.4-10c.7-3.8 3-7.9 6.4-12a66 66 0 0 1 6-6.2l1.7-1.5.4-.4h.1l.1.1c0-.2.2-.4.6-.3 1.7 2.4 3.1 4.7 4.2 6.7a17 17 0 0 1 2.2 11.7c-.7 4-2.3 7.4-3.4 9.8l-1.8 3.6s1.4-.5 3.7-1.8c2.4-1.4 5.8-3.5 9.2-7.8a23 23 0 0 0 4-8.5c.9-3.5 1-7.5.2-11.2a46 46 0 0 0-3.5-10.8c-2.9-5.8-6.5-11.5-10.2-17.6l-6.2 4c-3 1.9-6 4-8.6 6.4l-2 1.8-1 1-.5.5a45 45 0 0 0-8.4 12.6c-3.3 7-4.2 15-2.3 21 1.9 6.1 5.8 9.4 8.4 10.9Zm72.5 8.4 1.6-2 .7-1.2.4-.5.6-1c1.5-2.6 3-5.5 4.2-8.4l3.6-9-5.7-2.7a75.4 75.4 0 0 0-9.6-3.8l-2.5-.8-1.3-.3-.8-.2-3-.5c-4.1-.5-8.3-.4-12.2.4-4 .8-7.6 2.4-10.6 4.5a24.6 24.6 0 0 0-10.4 19.3c-.1 2.9.1 4.4.1 4.4l2.6-3.4c1.7-2 4.3-4.9 7.8-7 3.4-2 7.4-2.8 12-2.4 2.3.2 4.8.7 7.4 1.5l2 .6.5.1h-.1v.2c.1 0 .3 0 .5.2v.2l-.2.5-.4 1-.9 1.9-1.7 3.7a64 64 0 0 1-7 12c-2.3 3-4.9 4.8-7.1 5.4-2.3.6-3.8.4-3.8.4s.9 1.2 3.6 2.3c2.6 1.1 7.4 1.2 12.3-1a42.9 42.9 0 0 0 17.4-14.4Zm-27 41.2c-3.3.6-6 1-8.3.7a11 11 0 0 1-5.7-2.8c-1.3-1.1-2-2-2-2s-.4 1-.6 3c0 2 .3 5.4 3 8.9a23 23 0 0 0 12.3 7.3c1.8.6 6.6 1 10.9 1 4.3 0 9.1-.1 14-.4l-.3-2.1c-.5-4.5-.8-8.7-2-13a45.9 45.9 0 0 0-3.7-8.9l-1.2-1.7c-3-4.2-6.8-7.4-10.6-9a15.2 15.2 0 0 0-9.4-1.4c-2.2.4-3 1.1-3.1 1.1a15 15 0 0 1 6.5 7.2c1.2 2.4 2 5.5 2.8 9l.2 1.2-.2.2c-.1.2-.3.2-.4.3h-.4s.2.1.2.4c0 .3.3.7-2 1ZM199.6 68.4l.2 1.6.1 1a47.7 47.7 0 0 0 12.4 25c2.8 3 6.2 5.6 9.5 7.2 3.3 1.6 6.7 2.3 9.6 2.3 3 0 5.3-.7 7-1.5 3.5-1.8 4.6-3.6 4.6-3.5 0 0-2 .8-5.2.7-3.2 0-7.4-1.8-10.8-5.6-1.8-1.9-3.2-4-4.5-6.9a52.3 52.3 0 0 1-5.1-19.7V68.2h.2l.1-.2.7.1 1.5.4c4 1 7.7 2 11.2 3.2a41 41 0 0 1 16 8.5 13 13 0 0 1 3.4 11.1c-.4 3.3-1.2 5.2-1.2 5.2s1.7-1.1 3.9-4.1c1-1.6 2.2-3.7 2.8-6.6a18 18 0 0 0-1-10.2c-3-7.3-9.7-13.3-17.4-17.9a79 79 0 0 0-12.4-6l-1.7-.5-1-.4-1.6-.5a136 136 0 0 0-6.5-1.7l-13.1-3v.3c-.6 4.4-1.3 8.5-1.7 12.7-.2 2.2-.3 4.4-.2 6.6l.2 3.2Zm14 75.7a51.4 51.4 0 0 1-30.8-10.3 47 47 0 0 1-2.3-1.8l-.5-.5V131.1l.4-.4 2.7-1.7c3.7-2.2 7.5-4.2 11.2-6a66.7 66.7 0 0 1 20.3-6.1c6-.7 10.6.7 13.5 2.8 2.9 2 4 4 4 4s0-2.2-1.9-5.9a18 18 0 0 0-5.2-5.7 27.5 27.5 0 0 0-9.5-4.2 56.5 56.5 0 0 0-26 .7 77 77 0 0 0-23.9 10.4c-4 2.9-7 6.2-10.6 9.5l1 1.7c2.6 4 4.8 8 8.5 11.4.9 1 1.8 1.8 2.7 2.5l1.5 1.2 1 .7a49.4 49.4 0 0 0 19 8.3c10 2.2 19.5 1.3 26.8-1.4 7.3-2.6 12-7.1 14.2-10.6 2.3-3.5 2.6-5.7 2.7-5.6 0 0-1.5 1.6-4.7 3.6-3.1 1.9-8 3.6-14 3.7Zm355.1-33.8a40 40 0 0 0-22.2-20.1c-8.9-3-17.8-2.2-24.4 1a22 22 0 0 0-7 5.4 15.9 15.9 0 0 0-4.8 16.7c1.6 5.2 5.2 7.8 7.5 9 2.4 1 3.8 1.2 3.8 1.2s-1.3-.5-3.4-2c-.8-.6-1.7-1.5-2.6-2.6l-1.2-2.7c-.5-1.2-1.1-2.8-1.4-4.8-.1-4.1 2-9.2 6.7-11.2 2.4-1 6-1.4 9-1 3.3.6 6.5 2 9.4 4.4a34.7 34.7 0 0 1 12 20.8 25 25 0 0 1-.2 9A35.8 35.8 0 0 1 542 149c-6 7.1-15.8 11.7-26.9 14.3-4.5 1-10 1-15.5.2a78.4 78.4 0 0 1-16.9-4.8c-22.4-9-40.4-26.5-45.7-45.9a46.8 46.8 0 0 1 .1-28.3 57.3 57.3 0 0 1 13-22.3 50.2 50.2 0 0 1 34.7-15.9c9.6-.3 15 1.2 15 1 0 .2-5-2.4-15-3.8a53.2 53.2 0 0 0-41 12 64.8 64.8 0 0 0-23 42c-.5 6.1-.2 12.5 1.1 18.9a74.3 74.3 0 0 0 19 35.4 98.5 98.5 0 0 0 56.1 29.6c7.3 1 14.8 1 22.5-1.1 6.7-2 13-4.4 19-8a48.7 48.7 0 0 0 25-41.3 44 44 0 0 0-23.5-36.6l4.2 1.5a33.5 33.5 0 0 1 16.9 18 54 54 0 0 1 3.7 13.8c.7 5 1 10 .2 15a50.7 50.7 0 0 1-14.7 27.8 73.8 73.8 0 0 1-29.8 17.8 83.4 83.4 0 0 1-35 3.4 105.7 105.7 0 0 1-74-48.1l-2-3.4c5.4-13.4 6.1-25.6 5.5-33.9-.8-9.7-2.7-14.7-2.6-14.7a77.4 77.4 0 0 1-6 42.4 77.4 77.4 0 0 1-6.6-27.6c-.4-9.5.8-14.8.7-14.8 0 0-1.8 5-2.6 14.7a77 77 0 0 0 5.4 34l-1.9 3.3a105.8 105.8 0 0 1-74 48.1 83.4 83.4 0 0 1-35-3.4 73.8 73.8 0 0 1-29.8-17.8c-8-8-13.2-17.8-14.6-27.8a54.4 54.4 0 0 1 3.8-28.8 33.6 33.6 0 0 1 21-19.4l-3 1.5a44 44 0 0 0-20.5 35 69.7 69.7 0 0 0 1.2 9.7 48.7 48.7 0 0 0 23.8 31.7c6 3.5 12.4 6 19 7.9 7.7 2 15.3 2 22.6 1a98.5 98.5 0 0 0 56.2-29.6 74.4 74.4 0 0 0 18.9-35.3 57.8 57.8 0 0 0-3.4-36.3A64.9 64.9 0 0 0 369 55.3a55 55 0 0 0-41-12c-10 1.5-14.8 4-14.9 4 0 0 5.4-1.4 15-1A50.2 50.2 0 0 1 363 62a57.4 57.4 0 0 1 13 22.3 46.7 46.7 0 0 1 .1 28.3c-5.3 19.4-23.3 36.9-45.7 46a78.4 78.4 0 0 1-16.9 4.7A50.3 50.3 0 0 1 271 149a35.6 35.6 0 0 1-8.3-18.4c-.1-2 0-4.1.3-6.2a34.8 34.8 0 0 1 12-20.8c3-2.3 6.1-3.8 9.3-4.3 3.2-.6 6.7-.2 9 1 4.8 2 7 7 6.8 11.1a22.8 22.8 0 0 1-2.6 7.5c-.9 1.1-1.8 2-2.6 2.6-2 1.5-3.4 2-3.4 2s1.4-.2 3.8-1.3c2.3-1.1 5.9-3.7 7.5-9a15.9 15.9 0 0 0-4.8-16.7c-1.8-2-4.2-3.9-7-5.3-6.6-3.2-15.5-4-24.4-1a40 40 0 0 0-22.2 20 61.1 61.1 0 0 0-5.5 15.9 58.3 58.3 0 0 0-1 17.9 59.7 59.7 0 0 0 16.4 34.6 81.5 81.5 0 0 0 34.5 21.3 90 90 0 0 0 40.2 3.4c13-1.9 24.9-6.6 35.1-12.5a107 107 0 0 0 42.5-43.7 107 107 0 0 0 77.5 56.2c13 1.9 27 .9 40.2-3.4a81.4 81.4 0 0 0 34.6-21.3 59.6 59.6 0 0 0 16.4-34.6c.6-6.3 0-12.4-1.1-18-1.2-5.5-3-10.9-5.5-15.7ZM516 73a30 30 0 0 0 9.2 7.8c2.4 1.4 3.8 1.9 3.8 2L527 79c-1-2.3-2.7-5.8-3.4-9.7-.7-4 0-7.7 2.2-11.7 1-2 2.6-4.3 4.2-6.8.4 0 .5.2.6.3h.1l.5.3L533 53c2.2 2 4.2 4 6 6.1 3.4 4.2 5.7 8.3 6.4 12.1.8 3.9-.2 7.6-1.4 10-1.1 2.5-2.1 3.9-2.1 3.9s1.6-.4 4.2-2c2.6-1.4 6.5-4.7 8.4-10.8 2-6.1 1-14-2.2-21a46.6 46.6 0 0 0-8.5-12.6l-.5-.6-1-.9-2-1.9a65.6 65.6 0 0 0-8.6-6.4l-6.2-4c-3.7 6.1-7.3 11.9-10.2 17.7a46 46 0 0 0-3.5 10.7c-.7 3.8-.7 7.8.2 11.2.8 3.5 2.4 6.3 4 8.5Zm-30.6-11.8-3 .5-.8.2-1.3.4-2.5.7c-3.4 1-6.5 2.4-9.6 3.8l-5.6 2.7 3.4 9c1.3 2.9 2.8 5.8 4.4 8.4l.5 1 .4.5.7 1.1 1.6 2.1A42.9 42.9 0 0 0 491 106c4.8 2.2 9.6 2.2 12.3 1 2.6-1 3.5-2.3 3.5-2.3s-1.5.3-3.8-.3c-2.2-.6-4.7-2.4-7.1-5.4-2.4-3-4.7-7.2-7-12l-1.7-3.8-.8-2-.5-1-.2-.4v-.1c.2-.4.4-.4.5-.3v-.1l.4-.2 2-.6c2.6-.8 5-1.3 7.4-1.5 4.6-.4 8.6.5 12 2.5 3.5 2 6.1 4.9 7.8 7l2.6 3.3s.2-1.5 0-4.4a24.6 24.6 0 0 0-10.4-19.3c-2.9-2-6.6-3.7-10.5-4.5-4-.8-8-.9-12.2-.3Zm15.4 59.5a15 15 0 0 1 4-5.5c1.4-1.2 2.5-1.7 2.5-1.7s-1-.7-3-1.1c-2.2-.5-5.7-.4-9.5 1.3a27.7 27.7 0 0 0-10.6 9c-.5.7-.8 1-1.2 1.8a60.8 60.8 0 0 0-3.7 9c-1.2 4.2-1.5 8.4-2 12.9l-.2 2.1c4.8.3 9.5.4 14 .4 4.2 0 9-.4 10.7-1a23 23 0 0 0 12.3-7.3c2.7-3.5 3.1-6.9 3-8.8 0-2.1-.5-3.1-.5-3.1s-.7.9-2 2a11 11 0 0 1-5.8 2.8c-2.3.3-4.9 0-8.2-.7-2.4-.3-2-.7-2-1l.2-.5h-.4a.8.8 0 0 1-.4-.2l-.2-.2.2-1.2c.7-3.5 1.6-6.6 2.8-9Zm143.6-3.6a37.8 37.8 0 0 0-6.3-3.4 76 76 0 0 0-14.5-5 56.5 56.5 0 0 0-26-.7c-3.7.9-7 2.4-9.5 4.2a18 18 0 0 0-5.2 5.7c-2 3.7-1.9 6-2 5.9 0 0 1.2-2 4.1-4 2.9-2.1 7.6-3.5 13.5-2.8 5.9.6 12.9 2.8 20.3 6.2 3.7 1.7 7.4 3.7 11.1 6l2.8 1.7.4.3V131.6l-.5.5a47 47 0 0 1-12.7 7.6c-7.2 3.1-14.4 4.6-20.4 4.5-6.1 0-11-1.8-14.2-3.7-3.1-2-4.6-3.7-4.6-3.6 0 0 .4 2.2 2.6 5.6 2.2 3.5 7 8 14.3 10.7a53 53 0 0 0 45.8-7l1-.7 1.4-1.1a41 41 0 0 0 2.8-2.5c3.6-3.5 5.9-7.5 8.4-11.5l1.1-1.7c-3.6-3.3-6.6-6.6-10.6-9.4l-3.1-2ZM401.1 85.2c4.1 2 6.5 2.2 6.5 2.2s-2-1.3-4.7-4.4c-2.6-3.1-5.3-8.2-5.9-14.8-.7-6.7.5-14.8 3.2-23.3 1.4-4.3 3.1-8.7 5.3-13l.8-1.5.2-.3h.2v.2l.1-.2h.2l.1.2.5.8 1 1.5c2.6 4.1 4.7 8.2 6.3 12a37.9 37.9 0 0 1 2.4 22 49.2 49.2 0 0 1-6.1 15.4l-3.6 5.5s2.1-1 5.6-3.6c3.5-2.6 8.5-6.7 12.6-14.1a39 39 0 0 0 4.4-13.2 47 47 0 0 0-.6-16c-1.1-5.6-3.1-11.1-5.7-16.4l-1-2-.5-1-1-1.5c-1.2-2.2-2.8-4.5-4.3-6.7-3-4.4-6.3-8.6-9.6-13l-1.3 1.4c-3.6 3.8-6.9 6.8-10 11-1.5 2.2-3 4.6-4.2 7l-1.6 3.3-1 2.2a73 73 0 0 0-4.3 16.7 55.8 55.8 0 0 0 3 29c3.4 8 9 12.7 13 14.7Zm5-29.4c-8 0-8 12.5 0 12.5s8-12.5 0-12.5Zm-121.7 49.8a6.3 6.3 0 0 0-6.3 6.2v1a6.3 6.3 0 0 0 12.4 0v-1c0-3.4-2.7-6.2-6.1-6.2ZM27.5 98.5c-8 0-8 12.4 0 12.4s8-12.4 0-12.4Zm183 26.7c-8 0-8 12.4 0 12.4s8.1-12.4 0-12.4Zm24-44.5c-2.3 0-4.3 2-4.3 4.5v.8c0 2.5 2 4.5 4.4 4.5s4.4-2 4.4-4.5v-.8c0-2.5-2-4.5-4.4-4.5ZM280 65.6h-.9c-2.4 0-4.4 2-4.4 4.4s2 4.5 4.4 4.5h1c2.3 0 4.4-2 4.4-4.5s-2-4.4-4.5-4.4Zm32 17.8c-5.7 0-5.7 8.9 0 8.9s5.8-9 0-9Zm-7 37.3c-5.8 0-5.8 8.9 0 8.9s5.6-8.9 0-8.9Zm218.6-8.9v.9c0 3.4 2.8 6.2 6.2 6.2s6.2-2.8 6.2-6.2v-.9c0-3.4-2.8-6.2-6.2-6.2s-6.2 2.8-6.2 6.2Zm263-.9c8.1 0 8.1-12.4 0-12.4s-8 12.4 0 12.4Zm-183 26.7c8 0 8-12.4 0-12.4s-8 12.4 0 12.4Zm-28.4-52.4v.8c0 2.5 2 4.5 4.4 4.5s4.4-2 4.4-4.5v-.8c0-2.5-2-4.5-4.4-4.5s-4.4 2-4.4 4.5ZM529.7 70c0 2.5 2 4.5 4.5 4.5h.9c2.4 0 4.4-2 4.4-4.5s-2-4.4-4.4-4.4h-1c-2.4 0-4.4 2-4.4 4.4Zm-27.5 22.3c5.7 0 5.7-9 0-9s-5.8 9 0 9Zm7 37.3c5.8 0 5.8-8.9 0-8.9s-5.6 8.9 0 8.9Zm-103-28.4c-5.8 0-5.8 8.8 0 8.8s5.7-8.8 0-8.8Z" data-name="Layer 2"/></svg>